<mxfile host="app.diagrams.net" modified="2024-06-11T07:45:47.164Z" agent="Mozilla/5.0 (Windows NT 10.0; Win64; x64) AppleWebKit/537.36 (KHTML, like Gecko) Chrome/125.0.0.0 Safari/537.36" version="24.5.2" etag="xeXuUzcvBlODwmDcXqbx" type="device">
  <diagram id="To6bjaiv7bg4odkUJ4w4" name="Page-1">
    <mxGraphModel dx="5580" dy="3260" grid="1" gridSize="10" guides="1" tooltips="1" connect="1" arrows="1" fold="1" page="0" pageScale="1" pageWidth="850" pageHeight="1100" background="none" math="0" shadow="0">
      <root>
        <mxCell id="0" />
        <mxCell id="1" parent="0" />
        <mxCell id="node20" value="&lt;p style=&quot;margin:0px;margin-top:4px;text-align:center;&quot;&gt;&lt;b&gt;AbstractCollection&lt;E&gt;&lt;/b&gt;&lt;/p&gt;&lt;hr size=&quot;1&quot;/&gt;&lt;p style=&quot;margin:0 0 0 4px;line-height:1.6;&quot;&gt;+ contains(Object): boolean&lt;br/&gt;- finishToArray(T[], Iterator&amp;lt;?&amp;gt;): T[]&lt;br/&gt;+ iterator(): Iterator&amp;lt;E&amp;gt;&lt;br/&gt;+ retainAll(Collection&amp;lt;?&amp;gt;): boolean&lt;br/&gt;+ size(): int&lt;br/&gt;+ containsAll(Collection&amp;lt;?&amp;gt;): boolean&lt;br/&gt;+ isEmpty(): boolean&lt;br/&gt;+ toArray(T[]): T[]&lt;br/&gt;+ removeAll(Collection&amp;lt;?&amp;gt;): boolean&lt;br/&gt;+ clear(): void&lt;br/&gt;+ toArray(): Object[]&lt;br/&gt;- hugeCapacity(int): int&lt;br/&gt;+ addAll(Collection&amp;lt;E&amp;gt;): boolean&lt;br/&gt;+ add(E): boolean&lt;br/&gt;+ toString(): String&lt;br/&gt;+ remove(Object): boolean&lt;/p&gt;" style="verticalAlign=top;align=left;overflow=fill;fontSize=14;fontFamily=Helvetica;html=1;rounded=1;shadow=0;comic=0;labelBackgroundColor=none;strokeWidth=1;sketch=1;curveFitting=1;jiggle=2;" parent="1" vertex="1">
          <mxGeometry x="1869" y="580" width="268" height="491" as="geometry" />
        </mxCell>
        <mxCell id="node19" value="&lt;p style=&quot;margin:0px;margin-top:4px;text-align:center;&quot;&gt;&lt;b&gt;AbstractList&lt;E&gt;&lt;/b&gt;&lt;/p&gt;&lt;hr size=&quot;1&quot;/&gt;&lt;p style=&quot;margin:0 0 0 4px;line-height:1.6;&quot;&gt;+ add(int, E): void&lt;br/&gt;- outOfBoundsMsg(int): String&lt;br/&gt;+ clear(): void&lt;br/&gt;+ subList(int, int): List&amp;lt;E&amp;gt;&lt;br/&gt;+ equals(Object): boolean&lt;br/&gt;+ get(int): E&lt;br/&gt;+ remove(int): E&lt;br/&gt;+ hashCode(): int&lt;br/&gt;+ listIterator(): ListIterator&amp;lt;E&amp;gt;&lt;br/&gt;~ subListRangeCheck(int, int, int): void&lt;br/&gt;+ add(E): boolean&lt;br/&gt;+ iterator(): Iterator&amp;lt;E&amp;gt;&lt;br/&gt;- rangeCheckForAdd(int): void&lt;br/&gt;+ set(int, E): E&lt;br/&gt;+ listIterator(int): ListIterator&amp;lt;E&amp;gt;&lt;br/&gt;+ indexOf(Object): int&lt;br/&gt;+ lastIndexOf(Object): int&lt;br/&gt;# removeRange(int, int): void&lt;br/&gt;+ addAll(int, Collection&amp;lt;E&amp;gt;): boolean&lt;/p&gt;" style="verticalAlign=top;align=left;overflow=fill;fontSize=14;fontFamily=Helvetica;html=1;rounded=1;shadow=0;comic=0;labelBackgroundColor=none;strokeWidth=1;sketch=1;curveFitting=1;jiggle=2;" parent="1" vertex="1">
          <mxGeometry x="1086" y="3258" width="274" height="575" as="geometry" />
        </mxCell>
        <mxCell id="node35" value="&lt;p style=&quot;margin:0px;margin-top:4px;text-align:center;&quot;&gt;&lt;b&gt;AbstractMap&lt;K, V&gt;&lt;/b&gt;&lt;/p&gt;&lt;hr size=&quot;1&quot;/&gt;&lt;p style=&quot;margin:0 0 0 4px;line-height:1.6;&quot;&gt;+ values(): Collection&amp;lt;V&amp;gt;&lt;br/&gt;+ keySet(): Set&amp;lt;K&amp;gt;&lt;br/&gt;+ equals(Object): boolean&lt;br/&gt;- eq(Object?, Object): boolean&lt;br/&gt;+ toString(): String&lt;br/&gt;+ put(K, V): V?&lt;br/&gt;# clone(): Object&lt;br/&gt;+ get(Object): V&lt;br/&gt;+ containsValue(Object): boolean&lt;br/&gt;+ containsKey(Object): boolean&lt;br/&gt;+ entrySet(): Set&amp;lt;Entry&amp;lt;K, V&amp;gt;&amp;gt;&lt;br/&gt;+ putAll(Map&amp;lt;K, V&amp;gt;): void&lt;br/&gt;+ hashCode(): int&lt;br/&gt;+ remove(Object): V&lt;br/&gt;+ isEmpty(): boolean&lt;br/&gt;+ size(): int&lt;br/&gt;+ clear(): void&lt;/p&gt;" style="verticalAlign=top;align=left;overflow=fill;fontSize=14;fontFamily=Helvetica;html=1;rounded=1;shadow=0;comic=0;labelBackgroundColor=none;strokeWidth=1;sketch=1;curveFitting=1;jiggle=2;" parent="1" vertex="1">
          <mxGeometry x="-176" y="3286" width="238" height="519" as="geometry" />
        </mxCell>
        <mxCell id="node30" value="&lt;p style=&quot;margin:0px;margin-top:4px;text-align:center;&quot;&gt;&lt;b&gt;AbstractQueue&lt;E&gt;&lt;/b&gt;&lt;/p&gt;&lt;hr size=&quot;1&quot;/&gt;&lt;p style=&quot;margin:0 0 0 4px;line-height:1.6;&quot;&gt;+ add(E): boolean&lt;br/&gt;+ element(): E&lt;br/&gt;+ clear(): void&lt;br/&gt;+ remove(): E&lt;br/&gt;+ addAll(Collection&amp;lt;E&amp;gt;): boolean&lt;/p&gt;" style="verticalAlign=top;align=left;overflow=fill;fontSize=14;fontFamily=Helvetica;html=1;rounded=1;shadow=0;comic=0;labelBackgroundColor=none;strokeWidth=1;sketch=1;curveFitting=1;jiggle=2;" parent="1" vertex="1">
          <mxGeometry x="2763" y="3454" width="241" height="183" as="geometry" />
        </mxCell>
        <mxCell id="node27" value="&lt;p style=&quot;margin:0px;margin-top:4px;text-align:center;&quot;&gt;&lt;b&gt;AbstractSet&lt;E&gt;&lt;/b&gt;&lt;/p&gt;&lt;hr size=&quot;1&quot;/&gt;&lt;p style=&quot;margin:0 0 0 4px;line-height:1.6;&quot;&gt;+ hashCode(): int&lt;br/&gt;+ removeAll(Collection&amp;lt;?&amp;gt;): boolean&lt;br/&gt;+ equals(Object): boolean&lt;/p&gt;" style="verticalAlign=top;align=left;overflow=fill;fontSize=14;fontFamily=Helvetica;html=1;rounded=1;shadow=0;comic=0;labelBackgroundColor=none;strokeWidth=1;sketch=1;curveFitting=1;jiggle=2;" parent="1" vertex="1">
          <mxGeometry x="3892" y="3482" width="263" height="137" as="geometry" />
        </mxCell>
        <mxCell id="node32" value="&lt;p style=&quot;margin:0px;margin-top:4px;text-align:center;&quot;&gt;&lt;b&gt;ArrayBlockingQueue&lt;E&gt;&lt;/b&gt;&lt;/p&gt;&lt;hr size=&quot;1&quot;/&gt;&lt;p style=&quot;margin:0 0 0 4px;line-height:1.6;&quot;&gt;+ peek(): E&lt;br/&gt;- setBit(long[], int): void&lt;br/&gt;- circularClear(Object[], int, int): void&lt;br/&gt;+ remainingCapacity(): int&lt;br/&gt;~ inc(int, int): int&lt;br/&gt;+ size(): int&lt;br/&gt;+ toArray(T[]): T[]&lt;br/&gt;+ forEach(Consumer&amp;lt;E&amp;gt;): void&lt;br/&gt;- invariantsSatisfied(): boolean&lt;br/&gt;- distanceNonEmpty(int, int): int&lt;br/&gt;~ itemAt(int): E&lt;br/&gt;+ poll(): E&lt;br/&gt;~ checkInvariants(): void&lt;br/&gt;+ offer(E, long, TimeUnit): boolean&lt;br/&gt;- bulkRemove(Predicate&amp;lt;E&amp;gt;): boolean&lt;br/&gt;~ removeAt(int): void&lt;br/&gt;+ remove(Object): boolean&lt;br/&gt;+ spliterator(): Spliterator&amp;lt;E&amp;gt;&lt;br/&gt;- isClear(long[], int): boolean&lt;br/&gt;+ offer(E): boolean&lt;br/&gt;+ poll(long, TimeUnit): E?&lt;br/&gt;+ drainTo(Collection&amp;lt;E&amp;gt;): int&lt;br/&gt;+ removeIf(Predicate&amp;lt;E&amp;gt;): boolean&lt;br/&gt;~ itemAt(Object[], int): E&lt;br/&gt;+ contains(Object): boolean&lt;br/&gt;+ toArray(): Object[]&lt;br/&gt;- readObject(ObjectInputStream): void&lt;br/&gt;~ dec(int, int): int&lt;br/&gt;+ removeAll(Collection&amp;lt;?&amp;gt;): boolean&lt;br/&gt;+ take(): E&lt;br/&gt;- nBits(int): long[]&lt;br/&gt;+ clear(): void&lt;br/&gt;+ put(E): void&lt;br/&gt;- enqueue(E): void&lt;br/&gt;- dequeue(): E&lt;br/&gt;+ retainAll(Collection&amp;lt;?&amp;gt;): boolean&lt;br/&gt;- bulkRemoveModified(Predicate&amp;lt;E&amp;gt;, int): boolean&lt;br/&gt;+ toString(): String&lt;br/&gt;+ drainTo(Collection&amp;lt;E&amp;gt;, int): int&lt;br/&gt;+ iterator(): Iterator&amp;lt;E&amp;gt;&lt;br/&gt;+ add(E): boolean&lt;/p&gt;" style="verticalAlign=top;align=left;overflow=fill;fontSize=14;fontFamily=Helvetica;html=1;rounded=1;shadow=0;comic=0;labelBackgroundColor=none;strokeWidth=1;sketch=1;curveFitting=1;jiggle=2;" parent="1" vertex="1">
          <mxGeometry x="2487" y="6650" width="352" height="1191" as="geometry" />
        </mxCell>
        <mxCell id="node25" value="&lt;p style=&quot;margin:0px;margin-top:4px;text-align:center;&quot;&gt;&lt;b&gt;ArrayDeque&lt;E&gt;&lt;/b&gt;&lt;/p&gt;&lt;hr size=&quot;1&quot;/&gt;&lt;p style=&quot;margin:0 0 0 4px;line-height:1.6;&quot;&gt;+ removeFirstOccurrence(Object): boolean&lt;br/&gt;~ inc(int, int): int&lt;br/&gt;+ offerLast(E): boolean&lt;br/&gt;- bulkRemoveModified(Predicate&amp;lt;E&amp;gt;, int): boolean&lt;br/&gt;~ inc(int, int, int): int&lt;br/&gt;+ peekLast(): E&lt;br/&gt;- nBits(int): long[]&lt;br/&gt;+ addLast(E): void&lt;br/&gt;+ size(): int&lt;br/&gt;+ offer(E): boolean&lt;br/&gt;+ retainAll(Collection&amp;lt;?&amp;gt;): boolean&lt;br/&gt;- bulkRemove(Predicate&amp;lt;E&amp;gt;): boolean&lt;br/&gt;- grow(int): void&lt;br/&gt;+ element(): E&lt;br/&gt;+ forEach(Consumer&amp;lt;E&amp;gt;): void&lt;br/&gt;+ remove(Object): boolean&lt;br/&gt;+ removeIf(Predicate&amp;lt;E&amp;gt;): boolean&lt;br/&gt;+ getLast(): E&lt;br/&gt;~ delete(int): boolean&lt;br/&gt;+ clear(): void&lt;br/&gt;+ pollLast(): E&lt;br/&gt;+ pop(): E&lt;br/&gt;+ add(E): boolean&lt;br/&gt;+ peek(): E&lt;br/&gt;~ checkInvariants(): void&lt;br/&gt;~ dec(int, int): int&lt;br/&gt;+ offerFirst(E): boolean&lt;br/&gt;+ push(E): void&lt;br/&gt;+ descendingIterator(): Iterator&amp;lt;E&amp;gt;&lt;br/&gt;+ getFirst(): E&lt;br/&gt;- newCapacity(int, int): int&lt;br/&gt;+ spliterator(): Spliterator&amp;lt;E&amp;gt;&lt;br/&gt;~ elementAt(Object[], int): E&lt;br/&gt;+ removeFirst(): E&lt;br/&gt;+ remove(): E&lt;br/&gt;- copyElements(Collection&amp;lt;E&amp;gt;): void&lt;br/&gt;+ removeLastOccurrence(Object): boolean&lt;br/&gt;+ addAll(Collection&amp;lt;E&amp;gt;): boolean&lt;br/&gt;+ peekFirst(): E&lt;br/&gt;- circularClear(Object[], int, int): void&lt;br/&gt;+ removeLast(): E&lt;br/&gt;+ addFirst(E): void&lt;br/&gt;- setBit(long[], int): void&lt;br/&gt;+ isEmpty(): boolean&lt;br/&gt;+ pollFirst(): E&lt;br/&gt;+ poll(): E&lt;br/&gt;+ iterator(): Iterator&amp;lt;E&amp;gt;&lt;br/&gt;+ toArray(): Object[]&lt;br/&gt;- isClear(long[], int): boolean&lt;br/&gt;+ toArray(T[]): T[]&lt;br/&gt;- readObject(ObjectInputStream): void&lt;br/&gt;~ nonNullElementAt(Object[], int): E&lt;br/&gt;- toArray(Class&amp;lt;T[]&amp;gt;): T[]&lt;br/&gt;+ clone(): ArrayDeque&amp;lt;E&amp;gt;&lt;br/&gt;+ removeAll(Collection&amp;lt;?&amp;gt;): boolean&lt;br/&gt;+ contains(Object): boolean&lt;br/&gt;~ sub(int, int, int): int&lt;br/&gt;- writeObject(ObjectOutputStream): void&lt;/p&gt;" style="verticalAlign=top;align=left;overflow=fill;fontSize=14;fontFamily=Helvetica;html=1;rounded=1;shadow=0;comic=0;labelBackgroundColor=none;strokeWidth=1;sketch=1;curveFitting=1;jiggle=2;" parent="1" vertex="1">
          <mxGeometry x="1727" y="4272" width="352" height="1667" as="geometry" />
        </mxCell>
        <mxCell id="node6" value="&lt;p style=&quot;margin:0px;margin-top:4px;text-align:center;&quot;&gt;&lt;b&gt;ArrayList&lt;E&gt;&lt;/b&gt;&lt;/p&gt;&lt;hr size=&quot;1&quot;/&gt;&lt;p style=&quot;margin:0 0 0 4px;line-height:1.6;&quot;&gt;- hugeCapacity(int): int&lt;br/&gt;+ lastIndexOf(Object): int&lt;br/&gt;~ batchRemove(Collection&amp;lt;?&amp;gt;, boolean, int, int): boolean&lt;br/&gt;- fastRemove(Object[], int): void&lt;br/&gt;+ remove(Object): boolean&lt;br/&gt;~ lastIndexOfRange(Object, int, int): int&lt;br/&gt;~ elementData(int): E&lt;br/&gt;- outOfBoundsMsg(int, int): String&lt;br/&gt;- isClear(long[], int): boolean&lt;br/&gt;- writeObject(ObjectOutputStream): void&lt;br/&gt;- readObject(ObjectInputStream): void&lt;br/&gt;+ size(): int&lt;br/&gt;+ listIterator(): ListIterator&amp;lt;E&amp;gt;&lt;br/&gt;- outOfBoundsMsg(int): String&lt;br/&gt;- setBit(long[], int): void&lt;br/&gt;+ listIterator(int): ListIterator&amp;lt;E&amp;gt;&lt;br/&gt;+ forEach(Consumer&amp;lt;E&amp;gt;): void&lt;br/&gt;- grow(): Object[]&lt;br/&gt;- nBits(int): long[]&lt;br/&gt;+ add(int, E): void&lt;br/&gt;+ get(int): E&lt;br/&gt;+ addAll(Collection&amp;lt;E&amp;gt;): boolean&lt;br/&gt;+ hashCode(): int&lt;br/&gt;+ addAll(int, Collection&amp;lt;E&amp;gt;): boolean&lt;br/&gt;- replaceAllRange(UnaryOperator&amp;lt;E&amp;gt;, int, int): void&lt;br/&gt;~ checkInvariants(): void&lt;br/&gt;+ contains(Object): boolean&lt;br/&gt;+ trimToSize(): void&lt;br/&gt;~ equalsRange(List&amp;lt;?&amp;gt;, int, int): boolean&lt;br/&gt;+ retainAll(Collection&amp;lt;?&amp;gt;): boolean&lt;br/&gt;- equalsArrayList(ArrayList&amp;lt;?&amp;gt;): boolean&lt;br/&gt;+ equals(Object): boolean&lt;br/&gt;+ subList(int, int): List&amp;lt;E&amp;gt;&lt;br/&gt;- checkForComodification(int): void&lt;br/&gt;- shiftTailOverGap(Object[], int, int): void&lt;br/&gt;+ removeAll(Collection&amp;lt;?&amp;gt;): boolean&lt;br/&gt;+ indexOf(Object): int&lt;br/&gt;- rangeCheckForAdd(int): void&lt;br/&gt;+ isEmpty(): boolean&lt;br/&gt;~ removeIf(Predicate&amp;lt;E&amp;gt;, int, int): boolean&lt;br/&gt;~ indexOfRange(Object, int, int): int&lt;br/&gt;~ elementAt(Object[], int): E&lt;br/&gt;+ toArray(): Object[]&lt;br/&gt;+ iterator(): Iterator&amp;lt;E&amp;gt;&lt;br/&gt;# removeRange(int, int): void&lt;br/&gt;+ clear(): void&lt;br/&gt;+ replaceAll(UnaryOperator&amp;lt;E&amp;gt;): void&lt;br/&gt;+ sort(Comparator&amp;lt;E&amp;gt;): void&lt;br/&gt;- add(E, Object[], int): void&lt;br/&gt;+ remove(int): E&lt;br/&gt;+ toArray(T[]): T[]&lt;br/&gt;~ hashCodeRange(int, int): int&lt;br/&gt;+ spliterator(): Spliterator&amp;lt;E&amp;gt;&lt;br/&gt;+ ensureCapacity(int): void&lt;br/&gt;- grow(int): Object[]&lt;br/&gt;+ removeIf(Predicate&amp;lt;E&amp;gt;): boolean&lt;br/&gt;+ set(int, E): E&lt;br/&gt;- newCapacity(int): int&lt;br/&gt;+ clone(): Object&lt;br/&gt;+ add(E): boolean&lt;/p&gt;" style="verticalAlign=top;align=left;overflow=fill;fontSize=14;fontFamily=Helvetica;html=1;rounded=1;shadow=0;comic=0;labelBackgroundColor=none;strokeWidth=1;sketch=1;curveFitting=1;jiggle=2;" parent="1" vertex="1">
          <mxGeometry x="646" y="4244" width="394" height="1723" as="geometry" />
        </mxCell>
        <mxCell id="node34" value="&lt;p style=&quot;margin:0px;margin-top:4px;text-align:center;&quot;&gt;&lt;i&gt;&amp;lt;&amp;lt;interface&amp;gt;&amp;gt;&lt;/i&gt;&lt;br/&gt;&lt;b&gt;BlockingQueue&lt;E&gt;&lt;/b&gt;&lt;/p&gt;&lt;hr size=&quot;1&quot;/&gt;&lt;p style=&quot;margin:0 0 0 4px;line-height:1.6;&quot;&gt;+ remainingCapacity(): int&lt;br/&gt;+ remove(Object): boolean&lt;br/&gt;+ add(E): boolean&lt;br/&gt;+ offer(E, long, TimeUnit): boolean&lt;br/&gt;+ contains(Object): boolean&lt;br/&gt;+ poll(long, TimeUnit): E?&lt;br/&gt;+ take(): E&lt;br/&gt;+ drainTo(Collection&amp;lt;E&amp;gt;): int&lt;br/&gt;+ drainTo(Collection&amp;lt;E&amp;gt;, int): int&lt;br/&gt;+ offer(E): boolean&lt;br/&gt;+ put(E): void&lt;/p&gt;" style="verticalAlign=top;align=left;overflow=fill;fontSize=14;fontFamily=Helvetica;html=1;rounded=1;shadow=0;comic=0;labelBackgroundColor=none;strokeWidth=1;sketch=1;curveFitting=1;jiggle=2;" parent="1" vertex="1">
          <mxGeometry x="3300" y="2570" width="247" height="351" as="geometry" />
        </mxCell>
        <mxCell id="node11" value="&lt;p style=&quot;margin:0px;margin-top:4px;text-align:center;&quot;&gt;&lt;i&gt;&amp;lt;&amp;lt;interface&amp;gt;&amp;gt;&lt;/i&gt;&lt;br/&gt;&lt;b&gt;Collection&lt;E&gt;&lt;/b&gt;&lt;/p&gt;&lt;hr size=&quot;1&quot;/&gt;&lt;p style=&quot;margin:0 0 0 4px;line-height:1.6;&quot;&gt;+ toArray(T[]): T[]&lt;br/&gt;+ toArray(IntFunction&amp;lt;T[]&amp;gt;): T[]&lt;br/&gt;+ remove(Object): boolean&lt;br/&gt;+ retainAll(Collection&amp;lt;?&amp;gt;): boolean&lt;br/&gt;+ size(): int&lt;br/&gt;+ stream(): Stream&amp;lt;E&amp;gt;&lt;br/&gt;+ toArray(): Object[]&lt;br/&gt;+ hashCode(): int&lt;br/&gt;+ clear(): void&lt;br/&gt;+ removeIf(Predicate&amp;lt;E&amp;gt;): boolean&lt;br/&gt;+ isEmpty(): boolean&lt;br/&gt;+ contains(Object): boolean&lt;br/&gt;+ iterator(): Iterator&amp;lt;E&amp;gt;&lt;br/&gt;+ parallelStream(): Stream&amp;lt;E&amp;gt;&lt;br/&gt;+ spliterator(): Spliterator&amp;lt;E&amp;gt;&lt;br/&gt;+ equals(Object): boolean&lt;br/&gt;+ containsAll(Collection&amp;lt;?&amp;gt;): boolean&lt;br/&gt;+ removeAll(Collection&amp;lt;?&amp;gt;): boolean&lt;br/&gt;+ add(E): boolean&lt;br/&gt;+ addAll(Collection&amp;lt;E&amp;gt;): boolean&lt;/p&gt;" style="verticalAlign=top;align=left;overflow=fill;fontSize=14;fontFamily=Helvetica;html=1;rounded=1;shadow=0;comic=0;labelBackgroundColor=none;strokeWidth=1;sketch=1;curveFitting=1;jiggle=2;" parent="1" vertex="1">
          <mxGeometry x="3269" y="-316" width="268" height="603" as="geometry" />
        </mxCell>
        <mxCell id="node24" value="&lt;p style=&quot;margin:0px;margin-top:4px;text-align:center;&quot;&gt;&lt;b&gt;ConcurrentHashMap&lt;K, V&gt;&lt;/b&gt;&lt;/p&gt;&lt;hr size=&quot;1&quot;/&gt;&lt;p style=&quot;margin:0 0 0 4px;line-height:1.6;&quot;&gt;+ toString(): String&lt;br/&gt;+ size(): int&lt;br/&gt;+ replace(K, V): V?&lt;br/&gt;+ forEachKey(long, Consumer&amp;lt;K&amp;gt;): void&lt;br/&gt;+ keySet(): KeySetView&amp;lt;K, V&amp;gt;&lt;br/&gt;+ values(): Collection&amp;lt;V&amp;gt;&lt;br/&gt;+ reduceKeysToInt(long, ToIntFunction&amp;lt;K&amp;gt;, int, IntBinaryOperator): int&lt;br/&gt;+ reduceEntriesToDouble(long, ToDoubleFunction&amp;lt;Entry&amp;lt;K, V&amp;gt;&amp;gt;, double, DoubleBinaryOperator): double&lt;br/&gt;~ removeEntryIf(Predicate&amp;lt;Entry&amp;lt;K, V&amp;gt;&amp;gt;): boolean&lt;br/&gt;- transfer(Node&amp;lt;K, V&amp;gt;[], Node&amp;lt;K, V&amp;gt;[]): void&lt;br/&gt;+ search(long, BiFunction&amp;lt;K, V, U&amp;gt;): U&lt;br/&gt;+ reduceEntriesToLong(long, ToLongFunction&amp;lt;Entry&amp;lt;K, V&amp;gt;&amp;gt;, long, LongBinaryOperator): long&lt;br/&gt;- writeObject(ObjectOutputStream): void&lt;br/&gt;+ keySet(V): KeySetView&amp;lt;K, V&amp;gt;&lt;br/&gt;+ putAll(Map&amp;lt;K, V&amp;gt;): void&lt;br/&gt;+ forEachEntry(long, Function&amp;lt;Entry&amp;lt;K, V&amp;gt;, U&amp;gt;, Consumer&amp;lt;U&amp;gt;): void&lt;br/&gt;+ forEach(long, BiConsumer&amp;lt;K, V&amp;gt;): void&lt;br/&gt;+ computeIfPresent(K, BiFunction&amp;lt;K, V, V&amp;gt;): V&lt;br/&gt;+ entrySet(): Set&amp;lt;Entry&amp;lt;K, V&amp;gt;&amp;gt;&lt;br/&gt;~ resizeStamp(int): int&lt;br/&gt;+ keys(): Enumeration&amp;lt;K&amp;gt;&lt;br/&gt;~ casTabAt(Node&amp;lt;K, V&amp;gt;[], int, Node&amp;lt;K, V&amp;gt;, Node&amp;lt;K, V&amp;gt;): boolean&lt;br/&gt;+ newKeySet(): KeySetView&amp;lt;K, Boolean&amp;gt;&lt;br/&gt;+ reduceValuesToDouble(long, ToDoubleFunction&amp;lt;V&amp;gt;, double, DoubleBinaryOperator): double&lt;br/&gt;+ newKeySet(int): KeySetView&amp;lt;K, Boolean&amp;gt;&lt;br/&gt;- tableSizeFor(int): int&lt;br/&gt;+ get(Object): V&lt;br/&gt;+ merge(K, V, BiFunction&amp;lt;V, V, V&amp;gt;): V&lt;br/&gt;+ remove(Object, Object): boolean&lt;br/&gt;+ replaceAll(BiFunction&amp;lt;K, V, V&amp;gt;): void&lt;br/&gt;+ reduceKeysToDouble(long, ToDoubleFunction&amp;lt;K&amp;gt;, double, DoubleBinaryOperator): double&lt;br/&gt;~ compareComparables(Class&amp;lt;?&amp;gt;?, Object, Object?): int&lt;br/&gt;~ putVal(K, V, boolean): V&lt;br/&gt;- initTable(): Node&amp;lt;K, V&amp;gt;[]&lt;br/&gt;+ putIfAbsent(K, V): V?&lt;br/&gt;+ reduceKeys(long, Function&amp;lt;K, U&amp;gt;, BiFunction&amp;lt;U, U, U&amp;gt;): U&lt;br/&gt;+ remove(Object): V&lt;br/&gt;+ reduceValues(long, Function&amp;lt;V, U&amp;gt;, BiFunction&amp;lt;U, U, U&amp;gt;): U&lt;br/&gt;+ reduceValuesToInt(long, ToIntFunction&amp;lt;V&amp;gt;, int, IntBinaryOperator): int&lt;br/&gt;+ put(K, V): V?&lt;br/&gt;+ reduceToDouble(long, ToDoubleBiFunction&amp;lt;K, V&amp;gt;, double, DoubleBinaryOperator): double&lt;br/&gt;~ replaceNode(Object, V, Object): V&lt;br/&gt;+ reduceEntriesToInt(long, ToIntFunction&amp;lt;Entry&amp;lt;K, V&amp;gt;&amp;gt;, int, IntBinaryOperator): int&lt;br/&gt;+ containsValue(Object): boolean&lt;br/&gt;- tryPresize(int): void&lt;br/&gt;+ forEachValue(long, Function&amp;lt;V, U&amp;gt;, Consumer&amp;lt;U&amp;gt;): void&lt;br/&gt;~ spread(int): int&lt;br/&gt;+ hashCode(): int&lt;br/&gt;+ reduceKeysToLong(long, ToLongFunction&amp;lt;K&amp;gt;, long, LongBinaryOperator): long&lt;br/&gt;+ reduceEntries(long, BiFunction&amp;lt;Entry&amp;lt;K, V&amp;gt;, Entry&amp;lt;K, V&amp;gt;, Entry&amp;lt;K, V&amp;gt;&amp;gt;): Entry&amp;lt;K, V&amp;gt;&lt;br/&gt;- addCount(long, int): void&lt;br/&gt;+ compute(K, BiFunction&amp;lt;K, V, V&amp;gt;): V&lt;br/&gt;+ forEach(BiConsumer&amp;lt;K, V&amp;gt;): void&lt;br/&gt;+ reduceValues(long, BiFunction&amp;lt;V, V, V&amp;gt;): V&lt;br/&gt;+ mappingCount(): long&lt;br/&gt;~ helpTransfer(Node&amp;lt;K, V&amp;gt;[]?, Node&amp;lt;K, V&amp;gt;?): Node&amp;lt;K, V&amp;gt;[]&lt;br/&gt;+ searchEntries(long, Function&amp;lt;Entry&amp;lt;K, V&amp;gt;, U&amp;gt;): U&lt;br/&gt;+ reduceToInt(long, ToIntBiFunction&amp;lt;K, V&amp;gt;, int, IntBinaryOperator): int&lt;br/&gt;+ clear(): void&lt;br/&gt;~ untreeify(Node&amp;lt;K, V&amp;gt;?): Node&amp;lt;K, V&amp;gt;&lt;br/&gt;+ reduce(long, BiFunction&amp;lt;K, V, U&amp;gt;, BiFunction&amp;lt;U, U, U&amp;gt;): U&lt;br/&gt;+ forEachValue(long, Consumer&amp;lt;V&amp;gt;): void&lt;br/&gt;+ replace(K, V, V): boolean&lt;br/&gt;+ containsKey(Object): boolean&lt;br/&gt;+ elements(): Enumeration&amp;lt;V&amp;gt;&lt;br/&gt;+ forEach(long, BiFunction&amp;lt;K, V, U&amp;gt;, Consumer&amp;lt;U&amp;gt;): void&lt;br/&gt;~ tabAt(Node&amp;lt;K, V&amp;gt;[], int): Node&amp;lt;K, V&amp;gt;&lt;br/&gt;- readObject(ObjectInputStream): void&lt;br/&gt;+ equals(Object): boolean&lt;br/&gt;+ forEachKey(long, Function&amp;lt;K, U&amp;gt;, Consumer&amp;lt;U&amp;gt;): void&lt;br/&gt;~ comparableClassFor(Object?): Class&amp;lt;?&amp;gt;&lt;br/&gt;+ searchValues(long, Function&amp;lt;V, U&amp;gt;): U&lt;br/&gt;+ reduceEntries(long, Function&amp;lt;Entry&amp;lt;K, V&amp;gt;, U&amp;gt;, BiFunction&amp;lt;U, U, U&amp;gt;): U&lt;br/&gt;+ reduceToLong(long, ToLongBiFunction&amp;lt;K, V&amp;gt;, long, LongBinaryOperator): long&lt;br/&gt;+ computeIfAbsent(K, Function&amp;lt;K, V&amp;gt;): V&lt;br/&gt;~ sumCount(): long&lt;br/&gt;~ setTabAt(Node&amp;lt;K, V&amp;gt;[], int, Node&amp;lt;K, V&amp;gt;): void&lt;br/&gt;+ contains(Object): boolean&lt;br/&gt;- treeifyBin(Node&amp;lt;K, V&amp;gt;[]?, int): void&lt;br/&gt;+ forEachEntry(long, Consumer&amp;lt;Entry&amp;lt;K, V&amp;gt;&amp;gt;): void&lt;br/&gt;~ batchFor(long): int&lt;br/&gt;+ searchKeys(long, Function&amp;lt;K, U&amp;gt;): U&lt;br/&gt;+ getOrDefault(Object, V): V&lt;br/&gt;+ reduceValuesToLong(long, ToLongFunction&amp;lt;V&amp;gt;, long, LongBinaryOperator): long&lt;br/&gt;- fullAddCount(long, boolean): void&lt;br/&gt;+ isEmpty(): boolean&lt;br/&gt;+ reduceKeys(long, BiFunction&amp;lt;K, K, K&amp;gt;): K&lt;br/&gt;~ removeValueIf(Predicate&amp;lt;V&amp;gt;): boolean&lt;/p&gt;" style="verticalAlign=top;align=left;overflow=fill;fontSize=14;fontFamily=Helvetica;html=1;rounded=1;shadow=0;comic=0;labelBackgroundColor=none;strokeWidth=1;sketch=1;curveFitting=1;jiggle=2;" parent="1" vertex="1">
          <mxGeometry x="110" y="5992" width="506" height="2507" as="geometry" />
        </mxCell>
        <mxCell id="node16" value="&lt;p style=&quot;margin:0px;margin-top:4px;text-align:center;&quot;&gt;&lt;b&gt;ConcurrentLinkedDeque&lt;E&gt;&lt;/b&gt;&lt;/p&gt;&lt;hr size=&quot;1&quot;/&gt;&lt;p style=&quot;margin:0 0 0 4px;line-height:1.6;&quot;&gt;- updateTail(): void&lt;br/&gt;+ iterator(): Iterator&amp;lt;E&amp;gt;&lt;br/&gt;- readObject(ObjectInputStream): void&lt;br/&gt;+ removeFirstOccurrence(Object): boolean&lt;br/&gt;+ pollLast(): E&lt;br/&gt;~ first(): Node&amp;lt;E&amp;gt;&lt;br/&gt;~ last(): Node&amp;lt;E&amp;gt;&lt;br/&gt;+ addAll(Collection&amp;lt;E&amp;gt;): boolean&lt;br/&gt;- skipDeletedPredecessors(Node&amp;lt;E&amp;gt;): void&lt;br/&gt;+ getLast(): E&lt;br/&gt;+ push(E): void&lt;br/&gt;+ element(): E&lt;br/&gt;+ isEmpty(): boolean&lt;br/&gt;- writeObject(ObjectOutputStream): void&lt;br/&gt;+ offer(E): boolean&lt;br/&gt;- updateHead(): void&lt;br/&gt;+ peek(): E&lt;br/&gt;~ unlink(Node&amp;lt;E&amp;gt;): void&lt;br/&gt;~ succ(Node&amp;lt;E&amp;gt;): Node&amp;lt;E&amp;gt;&lt;br/&gt;+ removeAll(Collection&amp;lt;?&amp;gt;): boolean&lt;br/&gt;+ retainAll(Collection&amp;lt;?&amp;gt;): boolean&lt;br/&gt;+ toArray(T[]): T[]&lt;br/&gt;+ spliterator(): Spliterator&amp;lt;E&amp;gt;&lt;br/&gt;- screenNullResult(E): E&lt;br/&gt;+ addFirst(E): void&lt;br/&gt;- unlinkFirst(Node&amp;lt;E&amp;gt;, Node&amp;lt;E&amp;gt;): void&lt;br/&gt;+ peekFirst(): E&lt;br/&gt;~ nextTerminator(): Node&amp;lt;E&amp;gt;&lt;br/&gt;+ offerFirst(E): boolean&lt;br/&gt;- unlinkLast(Node&amp;lt;E&amp;gt;, Node&amp;lt;E&amp;gt;): void&lt;br/&gt;- linkLast(E): void&lt;br/&gt;+ offerLast(E): boolean&lt;br/&gt;+ remove(): E&lt;br/&gt;- toArrayInternal(Object[]?): Object[]&lt;br/&gt;+ pollFirst(): E&lt;br/&gt;+ descendingIterator(): Iterator&amp;lt;E&amp;gt;&lt;br/&gt;+ peekLast(): E&lt;br/&gt;+ poll(): E&lt;br/&gt;+ removeIf(Predicate&amp;lt;E&amp;gt;): boolean&lt;br/&gt;+ add(E): boolean&lt;br/&gt;~ prevTerminator(): Node&amp;lt;E&amp;gt;&lt;br/&gt;- bulkRemove(Predicate&amp;lt;E&amp;gt;): boolean&lt;br/&gt;+ getFirst(): E&lt;br/&gt;+ removeLast(): E&lt;br/&gt;- skipDeletedSuccessors(Node&amp;lt;E&amp;gt;): void&lt;br/&gt;+ clear(): void&lt;br/&gt;+ forEach(Consumer&amp;lt;E&amp;gt;): void&lt;br/&gt;+ addLast(E): void&lt;br/&gt;+ toArray(): Object[]&lt;br/&gt;~ newNode(E): Node&amp;lt;E&amp;gt;&lt;br/&gt;~ pred(Node&amp;lt;E&amp;gt;): Node&amp;lt;E&amp;gt;&lt;br/&gt;+ size(): int&lt;br/&gt;+ removeFirst(): E&lt;br/&gt;+ pop(): E&lt;br/&gt;- linkFirst(E): void&lt;br/&gt;+ contains(Object): boolean&lt;br/&gt;+ remove(Object): boolean&lt;br/&gt;- initHeadTail(Node&amp;lt;E&amp;gt;, Node&amp;lt;E&amp;gt;): void&lt;br/&gt;+ removeLastOccurrence(Object): boolean&lt;br/&gt;+ toString(): String&lt;/p&gt;" style="verticalAlign=top;align=left;overflow=fill;fontSize=14;fontFamily=Helvetica;html=1;rounded=1;shadow=0;comic=0;labelBackgroundColor=none;strokeWidth=1;sketch=1;curveFitting=1;jiggle=2;" parent="1" vertex="1">
          <mxGeometry x="1474" y="6384" width="299" height="1723" as="geometry" />
        </mxCell>
        <mxCell id="node9" value="&lt;p style=&quot;margin:0px;margin-top:4px;text-align:center;&quot;&gt;&lt;b&gt;ConcurrentLinkedQueue&lt;E&gt;&lt;/b&gt;&lt;/p&gt;&lt;hr size=&quot;1&quot;/&gt;&lt;p style=&quot;margin:0 0 0 4px;line-height:1.6;&quot;&gt;+ retainAll(Collection&amp;lt;?&amp;gt;): boolean&lt;br/&gt;- readObject(ObjectInputStream): void&lt;br/&gt;- bulkRemove(Predicate&amp;lt;E&amp;gt;): boolean&lt;br/&gt;- writeObject(ObjectOutputStream): void&lt;br/&gt;~ forEachFrom(Consumer&amp;lt;E&amp;gt;, Node&amp;lt;E&amp;gt;): void&lt;br/&gt;+ spliterator(): Spliterator&amp;lt;E&amp;gt;&lt;br/&gt;+ forEach(Consumer&amp;lt;E&amp;gt;): void&lt;br/&gt;+ remove(Object): boolean&lt;br/&gt;+ size(): int&lt;br/&gt;+ removeIf(Predicate&amp;lt;E&amp;gt;): boolean&lt;br/&gt;+ toString(): String&lt;br/&gt;+ peek(): E&lt;br/&gt;+ isEmpty(): boolean&lt;br/&gt;+ offer(E): boolean&lt;br/&gt;~ updateHead(Node&amp;lt;E&amp;gt;, Node&amp;lt;E&amp;gt;): void&lt;br/&gt;+ toArray(): Object[]&lt;br/&gt;+ contains(Object): boolean&lt;br/&gt;- skipDeadNodes(Node&amp;lt;E&amp;gt;, Node&amp;lt;E&amp;gt;, Node&amp;lt;E&amp;gt;, Node&amp;lt;E&amp;gt;?): Node&amp;lt;E&amp;gt;&lt;br/&gt;+ add(E): boolean&lt;br/&gt;+ removeAll(Collection&amp;lt;?&amp;gt;): boolean&lt;br/&gt;~ succ(Node&amp;lt;E&amp;gt;): Node&amp;lt;E&amp;gt;&lt;br/&gt;+ poll(): E&lt;br/&gt;~ first(): Node&amp;lt;E&amp;gt;&lt;br/&gt;+ addAll(Collection&amp;lt;E&amp;gt;): boolean&lt;br/&gt;- toArrayInternal(Object[]?): Object[]&lt;br/&gt;- tryCasSuccessor(Node&amp;lt;E&amp;gt;?, Node&amp;lt;E&amp;gt;, Node&amp;lt;E&amp;gt;): boolean&lt;br/&gt;+ clear(): void&lt;br/&gt;+ toArray(T[]): T[]&lt;br/&gt;+ iterator(): Iterator&amp;lt;E&amp;gt;&lt;/p&gt;" style="verticalAlign=top;align=left;overflow=fill;fontSize=14;fontFamily=Helvetica;html=1;rounded=1;shadow=0;comic=0;labelBackgroundColor=none;strokeWidth=1;sketch=1;curveFitting=1;jiggle=2;" parent="1" vertex="1">
          <mxGeometry x="3440" y="4678" width="487" height="855" as="geometry" />
        </mxCell>
        <mxCell id="node13" value="&lt;p style=&quot;margin:0px;margin-top:4px;text-align:center;&quot;&gt;&lt;i&gt;&amp;lt;&amp;lt;interface&amp;gt;&amp;gt;&lt;/i&gt;&lt;br/&gt;&lt;b&gt;ConcurrentMap&lt;K, V&gt;&lt;/b&gt;&lt;/p&gt;&lt;hr size=&quot;1&quot;/&gt;&lt;p style=&quot;margin:0 0 0 4px;line-height:1.6;&quot;&gt;+ replace(K, V): V?&lt;br/&gt;+ replaceAll(BiFunction&amp;lt;K, V, V&amp;gt;): void&lt;br/&gt;+ putIfAbsent(K, V): V?&lt;br/&gt;+ merge(K, V, BiFunction&amp;lt;V, V, V&amp;gt;): V&lt;br/&gt;+ getOrDefault(Object, V): V&lt;br/&gt;+ forEach(BiConsumer&amp;lt;K, V&amp;gt;): void&lt;br/&gt;+ computeIfAbsent(K, Function&amp;lt;K, V&amp;gt;): V&lt;br/&gt;+ replace(K, V, V): boolean&lt;br/&gt;+ computeIfPresent(K, BiFunction&amp;lt;K, V, V&amp;gt;): V&lt;br/&gt;+ remove(Object, Object): boolean&lt;br/&gt;+ compute(K, BiFunction&amp;lt;K, V, V&amp;gt;): V&lt;/p&gt;" style="verticalAlign=top;align=left;overflow=fill;fontSize=14;fontFamily=Helvetica;html=1;rounded=1;shadow=0;comic=0;labelBackgroundColor=none;strokeWidth=1;sketch=1;curveFitting=1;jiggle=2;" parent="1" vertex="1">
          <mxGeometry x="242" y="2570" width="323" height="351" as="geometry" />
        </mxCell>
        <mxCell id="node2" value="&lt;p style=&quot;margin:0px;margin-top:4px;text-align:center;&quot;&gt;&lt;b&gt;DelayQueue&lt;E&gt;&lt;/b&gt;&lt;/p&gt;&lt;hr size=&quot;1&quot;/&gt;&lt;p style=&quot;margin:0 0 0 4px;line-height:1.6;&quot;&gt;+ clear(): void&lt;br/&gt;+ offer(E, long, TimeUnit): boolean&lt;br/&gt;+ drainTo(Collection&amp;lt;E&amp;gt;, int): int&lt;br/&gt;+ poll(): E&lt;br/&gt;+ remove(Object): boolean&lt;br/&gt;+ size(): int&lt;br/&gt;+ peek(): E&lt;br/&gt;+ iterator(): Iterator&amp;lt;E&amp;gt;&lt;br/&gt;+ toArray(T[]): T[]&lt;br/&gt;+ offer(E): boolean&lt;br/&gt;+ remainingCapacity(): int&lt;br/&gt;+ add(E): boolean&lt;br/&gt;+ put(E): void&lt;br/&gt;+ take(): E&lt;br/&gt;~ removeEQ(Object): void&lt;br/&gt;+ toArray(): Object[]&lt;br/&gt;+ drainTo(Collection&amp;lt;E&amp;gt;): int&lt;br/&gt;+ poll(long, TimeUnit): E?&lt;/p&gt;" style="verticalAlign=top;align=left;overflow=fill;fontSize=14;fontFamily=Helvetica;html=1;rounded=1;shadow=0;comic=0;labelBackgroundColor=none;strokeWidth=1;sketch=1;curveFitting=1;jiggle=2;" parent="1" vertex="1">
          <mxGeometry x="2300" y="4832" width="247" height="547" as="geometry" />
        </mxCell>
        <mxCell id="node1" value="&lt;p style=&quot;margin:0px;margin-top:4px;text-align:center;&quot;&gt;&lt;i&gt;&amp;lt;&amp;lt;interface&amp;gt;&amp;gt;&lt;/i&gt;&lt;br/&gt;&lt;b&gt;Deque&lt;E&gt;&lt;/b&gt;&lt;/p&gt;&lt;hr size=&quot;1&quot;/&gt;&lt;p style=&quot;margin:0 0 0 4px;line-height:1.6;&quot;&gt;+ pollFirst(): E&lt;br/&gt;+ poll(): E&lt;br/&gt;+ element(): E&lt;br/&gt;+ pollLast(): E&lt;br/&gt;+ getLast(): E&lt;br/&gt;+ iterator(): Iterator&amp;lt;E&amp;gt;&lt;br/&gt;+ pop(): E&lt;br/&gt;+ removeFirst(): E&lt;br/&gt;+ removeFirstOccurrence(Object): boolean&lt;br/&gt;+ addAll(Collection&amp;lt;E&amp;gt;): boolean&lt;br/&gt;+ remove(Object): boolean&lt;br/&gt;+ peekLast(): E&lt;br/&gt;+ add(E): boolean&lt;br/&gt;+ getFirst(): E&lt;br/&gt;+ addLast(E): void&lt;br/&gt;+ offer(E): boolean&lt;br/&gt;+ push(E): void&lt;br/&gt;+ remove(): E&lt;br/&gt;+ contains(Object): boolean&lt;br/&gt;+ size(): int&lt;br/&gt;+ offerFirst(E): boolean&lt;br/&gt;+ offerLast(E): boolean&lt;br/&gt;+ descendingIterator(): Iterator&amp;lt;E&amp;gt;&lt;br/&gt;+ peekFirst(): E&lt;br/&gt;+ removeLast(): E&lt;br/&gt;+ peek(): E&lt;br/&gt;+ addFirst(E): void&lt;br/&gt;+ removeLastOccurrence(Object): boolean&lt;/p&gt;" style="verticalAlign=top;align=left;overflow=fill;fontSize=14;fontFamily=Helvetica;html=1;rounded=1;shadow=0;comic=0;labelBackgroundColor=none;strokeWidth=1;sketch=1;curveFitting=1;jiggle=2;" parent="1" vertex="1">
          <mxGeometry x="1676" y="3132" width="294" height="827" as="geometry" />
        </mxCell>
        <mxCell id="node15" value="&lt;p style=&quot;margin:0px;margin-top:4px;text-align:center;&quot;&gt;&lt;b&gt;Dictionary&lt;K, V&gt;&lt;/b&gt;&lt;/p&gt;&lt;hr size=&quot;1&quot;/&gt;&lt;p style=&quot;margin:0 0 0 4px;line-height:1.6;&quot;&gt;+ keys(): Enumeration&amp;lt;K&amp;gt;&lt;br/&gt;+ get(Object): V&lt;br/&gt;+ isEmpty(): boolean&lt;br/&gt;+ put(K, V): V&lt;br/&gt;+ size(): int&lt;br/&gt;+ elements(): Enumeration&amp;lt;V&amp;gt;&lt;br/&gt;+ remove(Object): V&lt;/p&gt;" style="verticalAlign=top;align=left;overflow=fill;fontSize=14;fontFamily=Helvetica;html=1;rounded=1;shadow=0;comic=0;labelBackgroundColor=none;strokeWidth=1;sketch=1;curveFitting=1;jiggle=2;" parent="1" vertex="1">
          <mxGeometry x="810" y="706" width="226" height="239" as="geometry" />
        </mxCell>
        <mxCell id="node21" value="&lt;p style=&quot;margin:0px;margin-top:4px;text-align:center;&quot;&gt;&lt;b&gt;HashMap&lt;K, V&gt;&lt;/b&gt;&lt;/p&gt;&lt;hr size=&quot;1&quot;/&gt;&lt;p style=&quot;margin:0 0 0 4px;line-height:1.6;&quot;&gt;~ hash(Object?): int&lt;br/&gt;+ get(Object): V&lt;br/&gt;~ treeifyBin(Node&amp;lt;K, V&amp;gt;[]?, int): void&lt;br/&gt;+ containsValue(Object): boolean&lt;br/&gt;+ clone(): Object&lt;br/&gt;+ getOrDefault(Object, V): V&lt;br/&gt;~ newNode(int, K, V, Node&amp;lt;K, V&amp;gt;): Node&amp;lt;K, V&amp;gt;&lt;br/&gt;- writeObject(ObjectOutputStream): void&lt;br/&gt;+ forEach(BiConsumer&amp;lt;K, V&amp;gt;): void&lt;br/&gt;~ afterNodeInsertion(boolean): void&lt;br/&gt;~ newTreeNode(int, K, V, Node&amp;lt;K, V&amp;gt;): TreeNode&amp;lt;K, V&amp;gt;&lt;br/&gt;+ clear(): void&lt;br/&gt;~ comparableClassFor(Object?): Class&amp;lt;?&amp;gt;&lt;br/&gt;+ containsKey(Object): boolean&lt;br/&gt;~ afterNodeRemoval(Node&amp;lt;K, V&amp;gt;): void&lt;br/&gt;+ computeIfAbsent(K, Function&amp;lt;K, V&amp;gt;): V&lt;br/&gt;~ afterNodeAccess(Node&amp;lt;K, V&amp;gt;): void&lt;br/&gt;~ replacementNode(Node&amp;lt;K, V&amp;gt;, Node&amp;lt;K, V&amp;gt;): Node&amp;lt;K, V&amp;gt;&lt;br/&gt;+ remove(Object, Object): boolean&lt;br/&gt;~ replacementTreeNode(Node&amp;lt;K, V&amp;gt;, Node&amp;lt;K, V&amp;gt;): TreeNode&amp;lt;K, V&amp;gt;&lt;br/&gt;+ remove(Object): V&lt;br/&gt;+ replace(K, V): V?&lt;br/&gt;+ replace(K, V, V): boolean&lt;br/&gt;+ compute(K, BiFunction&amp;lt;K, V, V&amp;gt;): V&lt;br/&gt;~ tableSizeFor(int): int&lt;br/&gt;~ compareComparables(Class&amp;lt;?&amp;gt;?, Object, Object?): int&lt;br/&gt;~ resize(): Node&amp;lt;K, V&amp;gt;[]&lt;br/&gt;~ internalWriteEntries(ObjectOutputStream): void&lt;br/&gt;~ loadFactor(): float&lt;br/&gt;~ reinitialize(): void&lt;br/&gt;+ size(): int&lt;br/&gt;~ removeNode(int, Object, Object?, boolean, boolean): Node&amp;lt;K, V&amp;gt;&lt;br/&gt;~ putVal(int, K, V, boolean, boolean): V&lt;br/&gt;+ computeIfPresent(K, BiFunction&amp;lt;K, V, V&amp;gt;): V&lt;br/&gt;+ putAll(Map&amp;lt;K, V&amp;gt;): void&lt;br/&gt;- readObject(ObjectInputStream): void&lt;br/&gt;+ values(): Collection&amp;lt;V&amp;gt;&lt;br/&gt;+ put(K, V): V?&lt;br/&gt;+ keySet(): Set&amp;lt;K&amp;gt;&lt;br/&gt;~ capacity(): int&lt;br/&gt;~ putMapEntries(Map&amp;lt;K, V&amp;gt;, boolean): void&lt;br/&gt;+ putIfAbsent(K, V): V?&lt;br/&gt;+ replaceAll(BiFunction&amp;lt;K, V, V&amp;gt;): void&lt;br/&gt;~ getNode(int, Object): Node&amp;lt;K, V&amp;gt;&lt;br/&gt;+ entrySet(): Set&amp;lt;Entry&amp;lt;K, V&amp;gt;&amp;gt;&lt;br/&gt;+ merge(K, V, BiFunction&amp;lt;V, V, V&amp;gt;): V&lt;br/&gt;+ isEmpty(): boolean&lt;/p&gt;" style="verticalAlign=top;align=left;overflow=fill;fontSize=14;fontFamily=Helvetica;html=1;rounded=1;shadow=0;comic=0;labelBackgroundColor=none;strokeWidth=1;sketch=1;curveFitting=1;jiggle=2;" parent="1" vertex="1">
          <mxGeometry x="-409" y="6566" width="464" height="1359" as="geometry" />
        </mxCell>
        <mxCell id="node28" value="&lt;p style=&quot;margin:0px;margin-top:4px;text-align:center;&quot;&gt;&lt;b&gt;HashSet&lt;E&gt;&lt;/b&gt;&lt;/p&gt;&lt;hr size=&quot;1&quot;/&gt;&lt;p style=&quot;margin:0 0 0 4px;line-height:1.6;&quot;&gt;+ iterator(): Iterator&amp;lt;E&amp;gt;&lt;br/&gt;+ size(): int&lt;br/&gt;+ clone(): Object&lt;br/&gt;+ clear(): void&lt;br/&gt;+ contains(Object): boolean&lt;br/&gt;- readObject(ObjectInputStream): void&lt;br/&gt;+ isEmpty(): boolean&lt;br/&gt;+ remove(Object): boolean&lt;br/&gt;+ add(E): boolean&lt;br/&gt;- writeObject(ObjectOutputStream): void&lt;br/&gt;+ spliterator(): Spliterator&amp;lt;E&amp;gt;&lt;/p&gt;" style="verticalAlign=top;align=left;overflow=fill;fontSize=14;fontFamily=Helvetica;html=1;rounded=1;shadow=0;comic=0;labelBackgroundColor=none;strokeWidth=1;sketch=1;curveFitting=1;jiggle=2;" parent="1" vertex="1">
          <mxGeometry x="3960" y="7070" width="287" height="351" as="geometry" />
        </mxCell>
        <mxCell id="node29" value="&lt;p style=&quot;margin:0px;margin-top:4px;text-align:center;&quot;&gt;&lt;b&gt;Hashtable&lt;K, V&gt;&lt;/b&gt;&lt;/p&gt;&lt;hr size=&quot;1&quot;/&gt;&lt;p style=&quot;margin:0 0 0 4px;line-height:1.6;&quot;&gt;+ contains(Object): boolean&lt;br/&gt;- addEntry(int, K, V, int): void&lt;br/&gt;+ hashCode(): int&lt;br/&gt;+ getOrDefault(Object, V): V&lt;br/&gt;+ clear(): void&lt;br/&gt;~ defaultWriteHashtable(ObjectOutputStream, int, float): void&lt;br/&gt;# rehash(): void&lt;br/&gt;- readObject(ObjectInputStream): void&lt;br/&gt;+ forEach(BiConsumer&amp;lt;K, V&amp;gt;): void&lt;br/&gt;+ get(Object): V&lt;br/&gt;+ remove(Object): V&lt;br/&gt;+ equals(Object): boolean&lt;br/&gt;+ putAll(Map&amp;lt;K, V&amp;gt;): void&lt;br/&gt;+ replace(K, V, V): boolean&lt;br/&gt;+ isEmpty(): boolean&lt;br/&gt;+ values(): Collection&amp;lt;V&amp;gt;&lt;br/&gt;~ writeHashtable(ObjectOutputStream): void&lt;br/&gt;+ replace(K, V): V?&lt;br/&gt;- writeObject(ObjectOutputStream): void&lt;br/&gt;+ compute(K, BiFunction&amp;lt;K, V, V&amp;gt;): V&lt;br/&gt;+ putIfAbsent(K, V): V?&lt;br/&gt;+ toString(): String&lt;br/&gt;+ computeIfPresent(K, BiFunction&amp;lt;K, V, V&amp;gt;): V&lt;br/&gt;+ remove(Object, Object): boolean&lt;br/&gt;~ readHashtable(ObjectInputStream): void&lt;br/&gt;+ elements(): Enumeration&amp;lt;V&amp;gt;&lt;br/&gt;+ computeIfAbsent(K, Function&amp;lt;K, V&amp;gt;): V&lt;br/&gt;- getIterator(int): Iterator&amp;lt;T&amp;gt;&lt;br/&gt;+ keys(): Enumeration&amp;lt;K&amp;gt;&lt;br/&gt;+ entrySet(): Set&amp;lt;Entry&amp;lt;K, V&amp;gt;&amp;gt;&lt;br/&gt;+ clone(): Object&lt;br/&gt;~ cloneHashtable(): Hashtable&amp;lt;?, ?&amp;gt;&lt;br/&gt;+ merge(K, V, BiFunction&amp;lt;V, V, V&amp;gt;): V&lt;br/&gt;- getEnumeration(int): Enumeration&amp;lt;T&amp;gt;&lt;br/&gt;+ put(K, V): V?&lt;br/&gt;+ keySet(): Set&amp;lt;K&amp;gt;&lt;br/&gt;+ containsKey(Object): boolean&lt;br/&gt;- reconstitutionPut(Entry&amp;lt;?, ?&amp;gt;[], K, V): void&lt;br/&gt;+ replaceAll(BiFunction&amp;lt;K, V, V&amp;gt;): void&lt;br/&gt;+ size(): int&lt;br/&gt;+ containsValue(Object): boolean&lt;/p&gt;" style="verticalAlign=top;align=left;overflow=fill;fontSize=14;fontFamily=Helvetica;html=1;rounded=1;shadow=0;comic=0;labelBackgroundColor=none;strokeWidth=1;sketch=1;curveFitting=1;jiggle=2;" parent="1" vertex="1">
          <mxGeometry x="616" y="2950" width="415" height="1191" as="geometry" />
        </mxCell>
        <mxCell id="node23" value="&lt;p style=&quot;margin:0px;margin-top:4px;text-align:center;&quot;&gt;&lt;i&gt;&amp;lt;&amp;lt;interface&amp;gt;&amp;gt;&lt;/i&gt;&lt;br/&gt;&lt;b&gt;Iterable&lt;T&gt;&lt;/b&gt;&lt;/p&gt;&lt;hr size=&quot;1&quot;/&gt;&lt;p style=&quot;margin:0 0 0 4px;line-height:1.6;&quot;&gt;+ spliterator(): Spliterator&amp;lt;T&amp;gt;&lt;br/&gt;+ iterator(): Iterator&amp;lt;T&amp;gt;&lt;br/&gt;+ forEach(Consumer&amp;lt;T&amp;gt;): void&lt;/p&gt;" style="verticalAlign=top;align=left;overflow=fill;fontSize=14;fontFamily=Helvetica;html=1;rounded=1;shadow=0;comic=0;labelBackgroundColor=none;strokeWidth=1;sketch=1;curveFitting=1;jiggle=2;" parent="1" vertex="1">
          <mxGeometry x="3291" y="-558" width="224" height="159" as="geometry" />
        </mxCell>
        <mxCell id="node10" value="&lt;p style=&quot;margin:0px;margin-top:4px;text-align:center;&quot;&gt;&lt;b&gt;LinkedBlockingQueue&lt;E&gt;&lt;/b&gt;&lt;/p&gt;&lt;hr size=&quot;1&quot;/&gt;&lt;p style=&quot;margin:0 0 0 4px;line-height:1.6;&quot;&gt;+ spliterator(): Spliterator&amp;lt;E&amp;gt;&lt;br/&gt;+ take(): E&lt;br/&gt;+ poll(long, TimeUnit): E?&lt;br/&gt;+ removeAll(Collection&amp;lt;?&amp;gt;): boolean&lt;br/&gt;+ toArray(): Object[]&lt;br/&gt;~ forEachFrom(Consumer&amp;lt;E&amp;gt;, Node&amp;lt;E&amp;gt;): void&lt;br/&gt;- signalNotFull(): void&lt;br/&gt;+ size(): int&lt;br/&gt;+ put(E): void&lt;br/&gt;~ unlink(Node&amp;lt;E&amp;gt;, Node&amp;lt;E&amp;gt;): void&lt;br/&gt;+ offer(E, long, TimeUnit): boolean&lt;br/&gt;+ removeIf(Predicate&amp;lt;E&amp;gt;): boolean&lt;br/&gt;~ fullyUnlock(): void&lt;br/&gt;+ contains(Object): boolean&lt;br/&gt;~ fullyLock(): void&lt;br/&gt;+ toString(): String&lt;br/&gt;- signalNotEmpty(): void&lt;br/&gt;- writeObject(ObjectOutputStream): void&lt;br/&gt;- enqueue(Node&amp;lt;E&amp;gt;): void&lt;br/&gt;+ forEach(Consumer&amp;lt;E&amp;gt;): void&lt;br/&gt;+ iterator(): Iterator&amp;lt;E&amp;gt;&lt;br/&gt;- dequeue(): E&lt;br/&gt;+ remove(Object): boolean&lt;br/&gt;+ remainingCapacity(): int&lt;br/&gt;~ succ(Node&amp;lt;E&amp;gt;): Node&amp;lt;E&amp;gt;&lt;br/&gt;- readObject(ObjectInputStream): void&lt;br/&gt;~ findPred(Node&amp;lt;E&amp;gt;, Node&amp;lt;E&amp;gt;): Node&amp;lt;E&amp;gt;&lt;br/&gt;+ poll(): E&lt;br/&gt;+ offer(E): boolean&lt;br/&gt;- bulkRemove(Predicate&amp;lt;E&amp;gt;): boolean&lt;br/&gt;+ toArray(T[]): T[]&lt;br/&gt;+ drainTo(Collection&amp;lt;E&amp;gt;, int): int&lt;br/&gt;+ retainAll(Collection&amp;lt;?&amp;gt;): boolean&lt;br/&gt;+ clear(): void&lt;br/&gt;+ drainTo(Collection&amp;lt;E&amp;gt;): int&lt;br/&gt;+ peek(): E&lt;/p&gt;" style="verticalAlign=top;align=left;overflow=fill;fontSize=14;fontFamily=Helvetica;html=1;rounded=1;shadow=0;comic=0;labelBackgroundColor=none;strokeWidth=1;sketch=1;curveFitting=1;jiggle=2;" parent="1" vertex="1">
          <mxGeometry x="3181" y="6720" width="324" height="1051" as="geometry" />
        </mxCell>
        <mxCell id="node3" value="&lt;p style=&quot;margin:0px;margin-top:4px;text-align:center;&quot;&gt;&lt;b&gt;LinkedHashMap&lt;K, V&gt;&lt;/b&gt;&lt;/p&gt;&lt;hr size=&quot;1&quot;/&gt;&lt;p style=&quot;margin:0 0 0 4px;line-height:1.6;&quot;&gt;# removeEldestEntry(Entry&amp;lt;K, V&amp;gt;): boolean&lt;br/&gt;~ reinitialize(): void&lt;br/&gt;- linkNodeLast(Entry&amp;lt;K, V&amp;gt;): void&lt;br/&gt;~ replacementTreeNode(Node&amp;lt;K, V&amp;gt;, Node&amp;lt;K, V&amp;gt;): TreeNode&amp;lt;K, V&amp;gt;&lt;br/&gt;- transferLinks(Entry&amp;lt;K, V&amp;gt;, Entry&amp;lt;K, V&amp;gt;): void&lt;br/&gt;~ newTreeNode(int, K, V, Node&amp;lt;K, V&amp;gt;): TreeNode&amp;lt;K, V&amp;gt;&lt;br/&gt;~ newNode(int, K, V, Node&amp;lt;K, V&amp;gt;): Node&amp;lt;K, V&amp;gt;&lt;br/&gt;+ containsValue(Object): boolean&lt;br/&gt;+ clear(): void&lt;br/&gt;+ entrySet(): Set&amp;lt;Entry&amp;lt;K, V&amp;gt;&amp;gt;&lt;br/&gt;~ afterNodeInsertion(boolean): void&lt;br/&gt;+ getOrDefault(Object, V): V&lt;br/&gt;+ forEach(BiConsumer&amp;lt;K, V&amp;gt;): void&lt;br/&gt;~ afterNodeAccess(Node&amp;lt;K, V&amp;gt;): void&lt;br/&gt;~ afterNodeRemoval(Node&amp;lt;K, V&amp;gt;): void&lt;br/&gt;+ values(): Collection&amp;lt;V&amp;gt;&lt;br/&gt;~ replacementNode(Node&amp;lt;K, V&amp;gt;, Node&amp;lt;K, V&amp;gt;): Node&amp;lt;K, V&amp;gt;&lt;br/&gt;~ internalWriteEntries(ObjectOutputStream): void&lt;br/&gt;+ keySet(): Set&amp;lt;K&amp;gt;&lt;br/&gt;+ get(Object): V&lt;br/&gt;+ replaceAll(BiFunction&amp;lt;K, V, V&amp;gt;): void&lt;/p&gt;" style="verticalAlign=top;align=left;overflow=fill;fontSize=14;fontFamily=Helvetica;html=1;rounded=1;shadow=0;comic=0;labelBackgroundColor=none;strokeWidth=1;sketch=1;curveFitting=1;jiggle=2;" parent="1" vertex="1">
          <mxGeometry x="-269" y="8710" width="464" height="631" as="geometry" />
        </mxCell>
        <mxCell id="node4" value="&lt;p style=&quot;margin:0px;margin-top:4px;text-align:center;&quot;&gt;&lt;b&gt;LinkedList&lt;E&gt;&lt;/b&gt;&lt;/p&gt;&lt;hr size=&quot;1&quot;/&gt;&lt;p style=&quot;margin:0 0 0 4px;line-height:1.6;&quot;&gt;+ add(E): boolean&lt;br/&gt;+ removeFirst(): E&lt;br/&gt;- writeObject(ObjectOutputStream): void&lt;br/&gt;+ pollLast(): E&lt;br/&gt;~ node(int): Node&amp;lt;E&amp;gt;&lt;br/&gt;+ push(E): void&lt;br/&gt;- isElementIndex(int): boolean&lt;br/&gt;+ peekLast(): E&lt;br/&gt;+ remove(int): E&lt;br/&gt;+ poll(): E&lt;br/&gt;+ get(int): E&lt;br/&gt;+ pollFirst(): E&lt;br/&gt;+ set(int, E): E&lt;br/&gt;- isPositionIndex(int): boolean&lt;br/&gt;+ addFirst(E): void&lt;br/&gt;+ addAll(Collection&amp;lt;E&amp;gt;): boolean&lt;br/&gt;+ removeLast(): E&lt;br/&gt;+ add(int, E): void&lt;br/&gt;- checkElementIndex(int): void&lt;br/&gt;+ pop(): E&lt;br/&gt;+ spliterator(): Spliterator&amp;lt;E&amp;gt;&lt;br/&gt;+ getFirst(): E&lt;br/&gt;+ offerFirst(E): boolean&lt;br/&gt;+ offerLast(E): boolean&lt;br/&gt;- unlinkLast(Node&amp;lt;E&amp;gt;): E&lt;br/&gt;+ remove(Object): boolean&lt;br/&gt;~ unlink(Node&amp;lt;E&amp;gt;): E&lt;br/&gt;- readObject(ObjectInputStream): void&lt;br/&gt;+ toArray(T[]): T[]&lt;br/&gt;+ indexOf(Object): int&lt;br/&gt;+ listIterator(int): ListIterator&amp;lt;E&amp;gt;&lt;br/&gt;+ peekFirst(): E&lt;br/&gt;+ element(): E&lt;br/&gt;+ offer(E): boolean&lt;br/&gt;- superClone(): LinkedList&amp;lt;E&amp;gt;&lt;br/&gt;+ descendingIterator(): Iterator&amp;lt;E&amp;gt;&lt;br/&gt;+ removeLastOccurrence(Object): boolean&lt;br/&gt;- linkFirst(E): void&lt;br/&gt;+ clear(): void&lt;br/&gt;+ lastIndexOf(Object): int&lt;br/&gt;+ remove(): E&lt;br/&gt;+ toArray(): Object[]&lt;br/&gt;+ clone(): Object&lt;br/&gt;+ peek(): E&lt;br/&gt;+ addLast(E): void&lt;br/&gt;+ removeFirstOccurrence(Object): boolean&lt;br/&gt;+ contains(Object): boolean&lt;br/&gt;- outOfBoundsMsg(int): String&lt;br/&gt;- checkPositionIndex(int): void&lt;br/&gt;+ getLast(): E&lt;br/&gt;+ size(): int&lt;br/&gt;~ linkBefore(E, Node&amp;lt;E&amp;gt;): void&lt;br/&gt;~ linkLast(E): void&lt;br/&gt;- unlinkFirst(Node&amp;lt;E&amp;gt;): E&lt;br/&gt;+ addAll(int, Collection&amp;lt;E&amp;gt;): boolean&lt;/p&gt;" style="verticalAlign=top;align=left;overflow=fill;fontSize=14;fontFamily=Helvetica;html=1;rounded=1;shadow=0;comic=0;labelBackgroundColor=none;strokeWidth=1;sketch=1;curveFitting=1;jiggle=2;" parent="1" vertex="1">
          <mxGeometry x="1236" y="4314" width="294" height="1583" as="geometry" />
        </mxCell>
        <mxCell id="node18" value="&lt;p style=&quot;margin:0px;margin-top:4px;text-align:center;&quot;&gt;&lt;i&gt;&amp;lt;&amp;lt;interface&amp;gt;&amp;gt;&lt;/i&gt;&lt;br/&gt;&lt;b&gt;List&lt;E&gt;&lt;/b&gt;&lt;/p&gt;&lt;hr size=&quot;1&quot;/&gt;&lt;p style=&quot;margin:0 0 0 4px;line-height:1.6;&quot;&gt;+ iterator(): Iterator&amp;lt;E&amp;gt;&lt;br/&gt;+ addAll(int, Collection&amp;lt;E&amp;gt;): boolean&lt;br/&gt;+ spliterator(): Spliterator&amp;lt;E&amp;gt;&lt;br/&gt;+ listIterator(int): ListIterator&amp;lt;E&amp;gt;&lt;br/&gt;+ clear(): void&lt;br/&gt;+ of(E, E, E, E, E, E, E, E): List&amp;lt;E&amp;gt;&lt;br/&gt;+ of(E, E): List&amp;lt;E&amp;gt;&lt;br/&gt;+ sort(Comparator&amp;lt;E&amp;gt;): void&lt;br/&gt;+ isEmpty(): boolean&lt;br/&gt;+ add(E): boolean&lt;br/&gt;+ add(int, E): void&lt;br/&gt;+ toArray(T[]): T[]&lt;br/&gt;+ addAll(Collection&amp;lt;E&amp;gt;): boolean&lt;br/&gt;+ of(E, E, E, E, E, E, E): List&amp;lt;E&amp;gt;&lt;br/&gt;+ replaceAll(UnaryOperator&amp;lt;E&amp;gt;): void&lt;br/&gt;+ contains(Object): boolean&lt;br/&gt;+ of(): List&amp;lt;E&amp;gt;&lt;br/&gt;+ of(E): List&amp;lt;E&amp;gt;&lt;br/&gt;+ of(E, E, E, E, E): List&amp;lt;E&amp;gt;&lt;br/&gt;+ containsAll(Collection&amp;lt;?&amp;gt;): boolean&lt;br/&gt;+ remove(Object): boolean&lt;br/&gt;+ of(E[]): List&amp;lt;E&amp;gt;&lt;br/&gt;+ set(int, E): E&lt;br/&gt;+ lastIndexOf(Object): int&lt;br/&gt;+ copyOf(Collection&amp;lt;E&amp;gt;): List&amp;lt;E&amp;gt;&lt;br/&gt;+ listIterator(): ListIterator&amp;lt;E&amp;gt;&lt;br/&gt;+ remove(int): E&lt;br/&gt;+ indexOf(Object): int&lt;br/&gt;+ retainAll(Collection&amp;lt;?&amp;gt;): boolean&lt;br/&gt;+ toArray(): Object[]&lt;br/&gt;+ of(E, E, E, E, E, E): List&amp;lt;E&amp;gt;&lt;br/&gt;+ of(E, E, E, E, E, E, E, E, E, E): List&amp;lt;E&amp;gt;&lt;br/&gt;+ equals(Object): boolean&lt;br/&gt;+ of(E, E, E, E, E, E, E, E, E): List&amp;lt;E&amp;gt;&lt;br/&gt;+ hashCode(): int&lt;br/&gt;+ of(E, E, E): List&amp;lt;E&amp;gt;&lt;br/&gt;+ get(int): E&lt;br/&gt;+ removeAll(Collection&amp;lt;?&amp;gt;): boolean&lt;br/&gt;+ size(): int&lt;br/&gt;+ subList(int, int): List&amp;lt;E&amp;gt;&lt;br/&gt;+ of(E, E, E, E): List&amp;lt;E&amp;gt;&lt;/p&gt;" style="verticalAlign=top;align=left;overflow=fill;fontSize=14;fontFamily=Helvetica;html=1;rounded=1;shadow=0;comic=0;labelBackgroundColor=none;strokeWidth=1;sketch=1;curveFitting=1;jiggle=2;" parent="1" vertex="1">
          <mxGeometry x="1029" y="1290" width="269" height="1191" as="geometry" />
        </mxCell>
        <mxCell id="node12" value="&lt;p style=&quot;margin:0px;margin-top:4px;text-align:center;&quot;&gt;&lt;i&gt;&amp;lt;&amp;lt;interface&amp;gt;&amp;gt;&lt;/i&gt;&lt;br/&gt;&lt;b&gt;Map&lt;K, V&gt;&lt;/b&gt;&lt;/p&gt;&lt;hr size=&quot;1&quot;/&gt;&lt;p style=&quot;margin:0 0 0 4px;line-height:1.6;&quot;&gt;+ computeIfAbsent(K, Function&amp;lt;K, V&amp;gt;): V&lt;br/&gt;+ isEmpty(): boolean&lt;br/&gt;+ forEach(BiConsumer&amp;lt;K, V&amp;gt;): void&lt;br/&gt;+ of(): Map&amp;lt;K, V&amp;gt;&lt;br/&gt;+ of(K, V, K, V, K, V): Map&amp;lt;K, V&amp;gt;&lt;br/&gt;+ equals(Object): boolean&lt;br/&gt;+ replaceAll(BiFunction&amp;lt;K, V, V&amp;gt;): void&lt;br/&gt;+ of(K, V, K, V): Map&amp;lt;K, V&amp;gt;&lt;br/&gt;+ clear(): void&lt;br/&gt;+ replace(K, V): V?&lt;br/&gt;+ getOrDefault(Object, V): V&lt;br/&gt;+ remove(Object, Object): boolean&lt;br/&gt;+ merge(K, V, BiFunction&amp;lt;V, V, V&amp;gt;): V&lt;br/&gt;+ of(K, V, K, V, K, V, K, V, K, V, K, V, K, V): Map&amp;lt;K, V&amp;gt;&lt;br/&gt;+ of(K, V, K, V, K, V, K, V, K, V, K, V, K, V, K, V, K, V): Map&amp;lt;K, V&amp;gt;&lt;br/&gt;+ remove(Object): V&lt;br/&gt;+ put(K, V): V?&lt;br/&gt;+ putAll(Map&amp;lt;K, V&amp;gt;): void&lt;br/&gt;+ ofEntries(Entry&amp;lt;K, V&amp;gt;[]): Map&amp;lt;K, V&amp;gt;&lt;br/&gt;+ values(): Collection&amp;lt;V&amp;gt;&lt;br/&gt;+ replace(K, V, V): boolean&lt;br/&gt;+ of(K, V): Map&amp;lt;K, V&amp;gt;&lt;br/&gt;+ of(K, V, K, V, K, V, K, V, K, V, K, V, K, V, K, V): Map&amp;lt;K, V&amp;gt;&lt;br/&gt;+ putIfAbsent(K, V): V?&lt;br/&gt;+ of(K, V, K, V, K, V, K, V, K, V): Map&amp;lt;K, V&amp;gt;&lt;br/&gt;+ containsValue(Object): boolean&lt;br/&gt;+ entry(K, V): Entry&amp;lt;K, V&amp;gt;&lt;br/&gt;+ get(Object): V&lt;br/&gt;+ entrySet(): Set&amp;lt;Entry&amp;lt;K, V&amp;gt;&amp;gt;&lt;br/&gt;+ of(K, V, K, V, K, V, K, V, K, V, K, V): Map&amp;lt;K, V&amp;gt;&lt;br/&gt;+ copyOf(Map&amp;lt;K, V&amp;gt;): Map&amp;lt;K, V&amp;gt;&lt;br/&gt;+ computeIfPresent(K, BiFunction&amp;lt;K, V, V&amp;gt;): V&lt;br/&gt;+ size(): int&lt;br/&gt;+ of(K, V, K, V, K, V, K, V): Map&amp;lt;K, V&amp;gt;&lt;br/&gt;+ keySet(): Set&amp;lt;K&amp;gt;&lt;br/&gt;+ hashCode(): int&lt;br/&gt;+ compute(K, BiFunction&amp;lt;K, V, V&amp;gt;): V&lt;br/&gt;+ of(K, V, K, V, K, V, K, V, K, V, K, V, K, V, K, V, K, V, K, V): Map&amp;lt;K, V&amp;gt;&lt;br/&gt;+ containsKey(Object): boolean&lt;/p&gt;" style="verticalAlign=top;align=left;overflow=fill;fontSize=14;fontFamily=Helvetica;html=1;rounded=1;shadow=0;comic=0;labelBackgroundColor=none;strokeWidth=1;sketch=1;curveFitting=1;jiggle=2;" parent="1" vertex="1">
          <mxGeometry x="-123" y="1318" width="453" height="1135" as="geometry" />
        </mxCell>
        <mxCell id="node14" value="&lt;p style=&quot;margin:0px;margin-top:4px;text-align:center;&quot;&gt;&lt;i&gt;&amp;lt;&amp;lt;interface&amp;gt;&amp;gt;&lt;/i&gt;&lt;br/&gt;&lt;b&gt;NavigableSet&lt;E&gt;&lt;/b&gt;&lt;/p&gt;&lt;hr size=&quot;1&quot;/&gt;&lt;p style=&quot;margin:0 0 0 4px;line-height:1.6;&quot;&gt;+ pollLast(): E?&lt;br/&gt;+ floor(E): E?&lt;br/&gt;+ tailSet(E, boolean): NavigableSet&amp;lt;E&amp;gt;&lt;br/&gt;+ subSet(E, E): SortedSet&amp;lt;E&amp;gt;&lt;br/&gt;+ pollFirst(): E?&lt;br/&gt;+ lower(E): E?&lt;br/&gt;+ ceiling(E): E?&lt;br/&gt;+ higher(E): E?&lt;br/&gt;+ descendingSet(): NavigableSet&amp;lt;E&amp;gt;&lt;br/&gt;+ headSet(E): SortedSet&amp;lt;E&amp;gt;&lt;br/&gt;+ iterator(): Iterator&amp;lt;E&amp;gt;&lt;br/&gt;+ descendingIterator(): Iterator&amp;lt;E&amp;gt;&lt;br/&gt;+ subSet(E, boolean, E, boolean): NavigableSet&amp;lt;E&amp;gt;&lt;br/&gt;+ tailSet(E): SortedSet&amp;lt;E&amp;gt;&lt;br/&gt;+ headSet(E, boolean): NavigableSet&amp;lt;E&amp;gt;&lt;/p&gt;" style="verticalAlign=top;align=left;overflow=fill;fontSize=14;fontFamily=Helvetica;html=1;rounded=1;shadow=0;comic=0;labelBackgroundColor=none;strokeWidth=1;sketch=1;curveFitting=1;jiggle=2;" parent="1" vertex="1">
          <mxGeometry x="4206" y="4874" width="354" height="463" as="geometry" />
        </mxCell>
        <mxCell id="node0" value="&lt;p style=&quot;margin:0px;margin-top:4px;text-align:center;&quot;&gt;&lt;b&gt;PriorityBlockingQueue&lt;E&gt;&lt;/b&gt;&lt;/p&gt;&lt;hr size=&quot;1&quot;/&gt;&lt;p style=&quot;margin:0 0 0 4px;line-height:1.6;&quot;&gt;+ poll(): E&lt;br/&gt;- removeAt(int): void&lt;br/&gt;+ toArray(T[]): T[]&lt;br/&gt;- siftUpComparable(int, T, Object[]): void&lt;br/&gt;+ offer(E): boolean&lt;br/&gt;- writeObject(ObjectOutputStream): void&lt;br/&gt;+ put(E): void&lt;br/&gt;+ drainTo(Collection&amp;lt;E&amp;gt;): int&lt;br/&gt;+ forEach(Consumer&amp;lt;E&amp;gt;): void&lt;br/&gt;+ peek(): E&lt;br/&gt;+ removeIf(Predicate&amp;lt;E&amp;gt;): boolean&lt;br/&gt;- dequeue(): E&lt;br/&gt;- setBit(long[], int): void&lt;br/&gt;+ poll(long, TimeUnit): E?&lt;br/&gt;- siftUpUsingComparator(int, T, Object[], Comparator&amp;lt;T&amp;gt;): void&lt;br/&gt;- siftDownComparable(int, T, Object[], int): void&lt;br/&gt;- siftDownUsingComparator(int, T, Object[], int, Comparator&amp;lt;T&amp;gt;): void&lt;br/&gt;+ size(): int&lt;br/&gt;+ drainTo(Collection&amp;lt;E&amp;gt;, int): int&lt;br/&gt;+ retainAll(Collection&amp;lt;?&amp;gt;): boolean&lt;br/&gt;+ remainingCapacity(): int&lt;br/&gt;+ removeAll(Collection&amp;lt;?&amp;gt;): boolean&lt;br/&gt;- heapify(): void&lt;br/&gt;~ removeEq(Object): void&lt;br/&gt;- readObject(ObjectInputStream): void&lt;br/&gt;+ toString(): String&lt;br/&gt;- tryGrow(Object[], int): void&lt;br/&gt;+ contains(Object): boolean&lt;br/&gt;+ iterator(): Iterator&amp;lt;E&amp;gt;&lt;br/&gt;- nBits(int): long[]&lt;br/&gt;+ take(): E&lt;br/&gt;- bulkRemove(Predicate&amp;lt;E&amp;gt;): boolean&lt;br/&gt;- ensureNonEmpty(Object[]): Object[]&lt;br/&gt;- indexOf(Object?): int&lt;br/&gt;- isClear(long[], int): boolean&lt;br/&gt;+ offer(E, long, TimeUnit): boolean&lt;br/&gt;+ spliterator(): Spliterator&amp;lt;E&amp;gt;&lt;br/&gt;+ remove(Object): boolean&lt;br/&gt;+ toArray(): Object[]&lt;br/&gt;+ comparator(): Comparator&amp;lt;E&amp;gt;&lt;br/&gt;+ clear(): void&lt;br/&gt;+ add(E): boolean&lt;/p&gt;" style="verticalAlign=top;align=left;overflow=fill;fontSize=14;fontFamily=Helvetica;html=1;rounded=1;shadow=0;comic=0;labelBackgroundColor=none;strokeWidth=1;sketch=1;curveFitting=1;jiggle=2;" parent="1" vertex="1">
          <mxGeometry x="2768" y="4496" width="470" height="1219" as="geometry" />
        </mxCell>
        <mxCell id="node26" value="&lt;p style=&quot;margin:0px;margin-top:4px;text-align:center;&quot;&gt;&lt;b&gt;PriorityQueue&lt;E&gt;&lt;/b&gt;&lt;/p&gt;&lt;hr size=&quot;1&quot;/&gt;&lt;p style=&quot;margin:0 0 0 4px;line-height:1.6;&quot;&gt;+ offer(E): boolean&lt;br/&gt;- siftDownComparable(int, T, Object[], int): void&lt;br/&gt;- siftUpUsingComparator(int, T, Object[], Comparator&amp;lt;T&amp;gt;): void&lt;br/&gt;- nBits(int): long[]&lt;br/&gt;~ removeEq(Object): void&lt;br/&gt;+ add(E): boolean&lt;br/&gt;+ contains(Object): boolean&lt;br/&gt;- readObject(ObjectInputStream): void&lt;br/&gt;- siftDown(int, E): void&lt;br/&gt;+ spliterator(): Spliterator&amp;lt;E&amp;gt;&lt;br/&gt;- hugeCapacity(int): int&lt;br/&gt;- initFromCollection(Collection&amp;lt;E&amp;gt;): void&lt;br/&gt;+ iterator(): Iterator&amp;lt;E&amp;gt;&lt;br/&gt;- indexOf(Object?): int&lt;br/&gt;- writeObject(ObjectOutputStream): void&lt;br/&gt;- siftUpComparable(int, T, Object[]): void&lt;br/&gt;- grow(int): void&lt;br/&gt;+ removeAll(Collection&amp;lt;?&amp;gt;): boolean&lt;br/&gt;+ retainAll(Collection&amp;lt;?&amp;gt;): boolean&lt;br/&gt;+ toArray(): Object[]&lt;br/&gt;+ remove(Object): boolean&lt;br/&gt;+ forEach(Consumer&amp;lt;E&amp;gt;): void&lt;br/&gt;- initElementsFromCollection(Collection&amp;lt;E&amp;gt;): void&lt;br/&gt;+ toArray(T[]): T[]&lt;br/&gt;- bulkRemove(Predicate&amp;lt;E&amp;gt;): boolean&lt;br/&gt;+ clear(): void&lt;br/&gt;- siftDownUsingComparator(int, T, Object[], int, Comparator&amp;lt;T&amp;gt;): void&lt;br/&gt;~ removeAt(int): E&lt;br/&gt;- heapify(): void&lt;br/&gt;+ comparator(): Comparator&amp;lt;E&amp;gt;&lt;br/&gt;- siftUp(int, E): void&lt;br/&gt;+ size(): int&lt;br/&gt;+ removeIf(Predicate&amp;lt;E&amp;gt;): boolean&lt;br/&gt;- setBit(long[], int): void&lt;br/&gt;- initFromPriorityQueue(PriorityQueue&amp;lt;E&amp;gt;): void&lt;br/&gt;+ poll(): E&lt;br/&gt;- ensureNonEmpty(Object[]): Object[]&lt;br/&gt;+ peek(): E&lt;br/&gt;- isClear(long[], int): boolean&lt;/p&gt;" style="verticalAlign=top;align=left;overflow=fill;fontSize=14;fontFamily=Helvetica;html=1;rounded=1;shadow=0;comic=0;labelBackgroundColor=none;strokeWidth=1;sketch=1;curveFitting=1;jiggle=2;" parent="1" vertex="1">
          <mxGeometry x="1928" y="6678" width="470" height="1135" as="geometry" />
        </mxCell>
        <mxCell id="node22" value="&lt;p style=&quot;margin:0px;margin-top:4px;text-align:center;&quot;&gt;&lt;i&gt;&amp;lt;&amp;lt;interface&amp;gt;&amp;gt;&lt;/i&gt;&lt;br/&gt;&lt;b&gt;Queue&lt;E&gt;&lt;/b&gt;&lt;/p&gt;&lt;hr size=&quot;1&quot;/&gt;&lt;p style=&quot;margin:0 0 0 4px;line-height:1.6;&quot;&gt;+ offer(E): boolean&lt;br/&gt;+ remove(): E&lt;br/&gt;+ element(): E&lt;br/&gt;+ poll(): E&lt;br/&gt;+ add(E): boolean&lt;br/&gt;+ peek(): E&lt;/p&gt;" style="verticalAlign=top;align=left;overflow=fill;fontSize=14;fontFamily=Helvetica;html=1;rounded=1;shadow=0;comic=0;labelBackgroundColor=none;strokeWidth=1;sketch=1;curveFitting=1;jiggle=2;" parent="1" vertex="1">
          <mxGeometry x="3389" y="1780" width="148" height="211" as="geometry" />
        </mxCell>
        <mxCell id="node7" value="&lt;p style=&quot;margin:0px;margin-top:4px;text-align:center;&quot;&gt;&lt;i&gt;&amp;lt;&amp;lt;interface&amp;gt;&amp;gt;&lt;/i&gt;&lt;br/&gt;&lt;b&gt;Set&lt;E&gt;&lt;/b&gt;&lt;/p&gt;&lt;hr size=&quot;1&quot;/&gt;&lt;p style=&quot;margin:0 0 0 4px;line-height:1.6;&quot;&gt;+ of(E, E, E, E, E): Set&amp;lt;E&amp;gt;&lt;br/&gt;+ remove(Object): boolean&lt;br/&gt;+ copyOf(Collection&amp;lt;E&amp;gt;): Set&amp;lt;E&amp;gt;&lt;br/&gt;+ addAll(Collection&amp;lt;E&amp;gt;): boolean&lt;br/&gt;+ spliterator(): Spliterator&amp;lt;E&amp;gt;&lt;br/&gt;+ iterator(): Iterator&amp;lt;E&amp;gt;&lt;br/&gt;+ of(E, E): Set&amp;lt;E&amp;gt;&lt;br/&gt;+ add(E): boolean&lt;br/&gt;+ equals(Object): boolean&lt;br/&gt;+ of(): Set&amp;lt;E&amp;gt;&lt;br/&gt;+ contains(Object): boolean&lt;br/&gt;+ isEmpty(): boolean&lt;br/&gt;+ hashCode(): int&lt;br/&gt;+ of(E, E, E, E, E, E, E): Set&amp;lt;E&amp;gt;&lt;br/&gt;+ of(E[]): Set&amp;lt;E&amp;gt;&lt;br/&gt;+ of(E, E, E, E, E, E, E, E): Set&amp;lt;E&amp;gt;&lt;br/&gt;+ clear(): void&lt;br/&gt;+ of(E, E, E, E): Set&amp;lt;E&amp;gt;&lt;br/&gt;+ of(E, E, E, E, E, E): Set&amp;lt;E&amp;gt;&lt;br/&gt;+ of(E, E, E, E, E, E, E, E, E): Set&amp;lt;E&amp;gt;&lt;br/&gt;+ of(E, E, E, E, E, E, E, E, E, E): Set&amp;lt;E&amp;gt;&lt;br/&gt;+ removeAll(Collection&amp;lt;?&amp;gt;): boolean&lt;br/&gt;+ containsAll(Collection&amp;lt;?&amp;gt;): boolean&lt;br/&gt;+ of(E): Set&amp;lt;E&amp;gt;&lt;br/&gt;+ retainAll(Collection&amp;lt;?&amp;gt;): boolean&lt;br/&gt;+ toArray(T[]): T[]&lt;br/&gt;+ of(E, E, E): Set&amp;lt;E&amp;gt;&lt;br/&gt;+ size(): int&lt;br/&gt;+ toArray(): Object[]&lt;/p&gt;" style="verticalAlign=top;align=left;overflow=fill;fontSize=14;fontFamily=Helvetica;html=1;rounded=1;shadow=0;comic=0;labelBackgroundColor=none;strokeWidth=1;sketch=1;curveFitting=1;jiggle=2;" parent="1" vertex="1">
          <mxGeometry x="4109" y="398" width="268" height="855" as="geometry" />
        </mxCell>
        <mxCell id="node33" value="&lt;p style=&quot;margin:0px;margin-top:4px;text-align:center;&quot;&gt;&lt;i&gt;&amp;lt;&amp;lt;interface&amp;gt;&amp;gt;&lt;/i&gt;&lt;br/&gt;&lt;b&gt;SortedMap&lt;K, V&gt;&lt;/b&gt;&lt;/p&gt;&lt;hr size=&quot;1&quot;/&gt;&lt;p style=&quot;margin:0 0 0 4px;line-height:1.6;&quot;&gt;+ keySet(): Set&amp;lt;K&amp;gt;&lt;br/&gt;+ firstKey(): K&lt;br/&gt;+ comparator(): Comparator&amp;lt;K&amp;gt;&lt;br/&gt;+ values(): Collection&amp;lt;V&amp;gt;&lt;br/&gt;+ tailMap(K): SortedMap&amp;lt;K, V&amp;gt;&lt;br/&gt;+ lastKey(): K&lt;br/&gt;+ subMap(K, K): SortedMap&amp;lt;K, V&amp;gt;&lt;br/&gt;+ headMap(K): SortedMap&amp;lt;K, V&amp;gt;&lt;br/&gt;+ entrySet(): Set&amp;lt;Entry&amp;lt;K, V&amp;gt;&amp;gt;&lt;/p&gt;" style="verticalAlign=top;align=left;overflow=fill;fontSize=14;fontFamily=Helvetica;html=1;rounded=1;shadow=0;comic=0;labelBackgroundColor=none;strokeWidth=1;sketch=1;curveFitting=1;jiggle=2;" parent="1" vertex="1">
          <mxGeometry x="99" y="3398" width="248" height="295" as="geometry" />
        </mxCell>
        <mxCell id="node17" value="&lt;p style=&quot;margin:0px;margin-top:4px;text-align:center;&quot;&gt;&lt;i&gt;&amp;lt;&amp;lt;interface&amp;gt;&amp;gt;&lt;/i&gt;&lt;br/&gt;&lt;b&gt;SortedSet&lt;E&gt;&lt;/b&gt;&lt;/p&gt;&lt;hr size=&quot;1&quot;/&gt;&lt;p style=&quot;margin:0 0 0 4px;line-height:1.6;&quot;&gt;+ spliterator(): Spliterator&amp;lt;E&amp;gt;&lt;br/&gt;+ first(): E&lt;br/&gt;+ comparator(): Comparator&amp;lt;E&amp;gt;?&lt;br/&gt;+ tailSet(E): SortedSet&amp;lt;E&amp;gt;&lt;br/&gt;+ subSet(E, E): SortedSet&amp;lt;E&amp;gt;&lt;br/&gt;+ headSet(E): SortedSet&amp;lt;E&amp;gt;&lt;br/&gt;+ last(): E&lt;/p&gt;" style="verticalAlign=top;align=left;overflow=fill;fontSize=14;fontFamily=Helvetica;html=1;rounded=1;shadow=0;comic=0;labelBackgroundColor=none;strokeWidth=1;sketch=1;curveFitting=1;jiggle=2;" parent="1" vertex="1">
          <mxGeometry x="4202" y="3426" width="242" height="239" as="geometry" />
        </mxCell>
        <mxCell id="node5" value="&lt;p style=&quot;margin:0px;margin-top:4px;text-align:center;&quot;&gt;&lt;b&gt;Stack&lt;E&gt;&lt;/b&gt;&lt;/p&gt;&lt;hr size=&quot;1&quot;/&gt;&lt;p style=&quot;margin:0 0 0 4px;line-height:1.6;&quot;&gt;+ push(E): E&lt;br/&gt;+ peek(): E&lt;br/&gt;+ pop(): E&lt;br/&gt;+ empty(): boolean&lt;br/&gt;+ search(Object): int&lt;/p&gt;" style="verticalAlign=top;align=left;overflow=fill;fontSize=14;fontFamily=Helvetica;html=1;rounded=1;shadow=0;comic=0;labelBackgroundColor=none;strokeWidth=1;sketch=1;curveFitting=1;jiggle=2;" parent="1" vertex="1">
          <mxGeometry x="1064" y="8934" width="158" height="183" as="geometry" />
        </mxCell>
        <mxCell id="node8" value="&lt;p style=&quot;margin:0px;margin-top:4px;text-align:center;&quot;&gt;&lt;b&gt;TreeSet&lt;E&gt;&lt;/b&gt;&lt;/p&gt;&lt;hr size=&quot;1&quot;/&gt;&lt;p style=&quot;margin:0 0 0 4px;line-height:1.6;&quot;&gt;+ addAll(Collection&amp;lt;E&amp;gt;): boolean&lt;br/&gt;+ lower(E): E?&lt;br/&gt;+ ceiling(E): E?&lt;br/&gt;+ iterator(): Iterator&amp;lt;E&amp;gt;&lt;br/&gt;+ spliterator(): Spliterator&amp;lt;E&amp;gt;&lt;br/&gt;+ contains(Object): boolean&lt;br/&gt;+ first(): E&lt;br/&gt;+ remove(Object): boolean&lt;br/&gt;+ descendingSet(): NavigableSet&amp;lt;E&amp;gt;&lt;br/&gt;+ pollLast(): E?&lt;br/&gt;- readObject(ObjectInputStream): void&lt;br/&gt;+ headSet(E): SortedSet&amp;lt;E&amp;gt;&lt;br/&gt;+ clone(): Object&lt;br/&gt;+ headSet(E, boolean): NavigableSet&amp;lt;E&amp;gt;&lt;br/&gt;+ comparator(): Comparator&amp;lt;E&amp;gt;?&lt;br/&gt;+ pollFirst(): E?&lt;br/&gt;+ tailSet(E, boolean): NavigableSet&amp;lt;E&amp;gt;&lt;br/&gt;+ tailSet(E): SortedSet&amp;lt;E&amp;gt;&lt;br/&gt;+ higher(E): E?&lt;br/&gt;+ last(): E&lt;br/&gt;+ descendingIterator(): Iterator&amp;lt;E&amp;gt;&lt;br/&gt;+ size(): int&lt;br/&gt;+ isEmpty(): boolean&lt;br/&gt;+ floor(E): E?&lt;br/&gt;+ subSet(E, boolean, E, boolean): NavigableSet&amp;lt;E&amp;gt;&lt;br/&gt;+ subSet(E, E): SortedSet&amp;lt;E&amp;gt;&lt;br/&gt;- writeObject(ObjectOutputStream): void&lt;br/&gt;+ add(E): boolean&lt;br/&gt;+ clear(): void&lt;/p&gt;" style="verticalAlign=top;align=left;overflow=fill;fontSize=14;fontFamily=Helvetica;html=1;rounded=1;shadow=0;comic=0;labelBackgroundColor=none;strokeWidth=1;sketch=1;curveFitting=1;jiggle=2;" parent="1" vertex="1">
          <mxGeometry x="3846" y="8598" width="354" height="855" as="geometry" />
        </mxCell>
        <mxCell id="node31" value="&lt;p style=&quot;margin:0px;margin-top:4px;text-align:center;&quot;&gt;&lt;b&gt;Vector&lt;E&gt;&lt;/b&gt;&lt;/p&gt;&lt;hr size=&quot;1&quot;/&gt;&lt;p style=&quot;margin:0 0 0 4px;line-height:1.6;&quot;&gt;+ containsAll(Collection&amp;lt;?&amp;gt;): boolean&lt;br/&gt;+ removeIf(Predicate&amp;lt;E&amp;gt;): boolean&lt;br/&gt;- bulkRemove(Predicate&amp;lt;E&amp;gt;): boolean&lt;br/&gt;+ addElement(E): void&lt;br/&gt;# removeRange(int, int): void&lt;br/&gt;+ removeAllElements(): void&lt;br/&gt;+ add(int, E): void&lt;br/&gt;+ toString(): String&lt;br/&gt;+ listIterator(int): ListIterator&amp;lt;E&amp;gt;&lt;br/&gt;- grow(int): Object[]&lt;br/&gt;- newCapacity(int): int&lt;br/&gt;+ addAll(Collection&amp;lt;E&amp;gt;): boolean&lt;br/&gt;+ insertElementAt(E, int): void&lt;br/&gt;- add(E, Object[], int): void&lt;br/&gt;- isClear(long[], int): boolean&lt;br/&gt;+ forEach(Consumer&amp;lt;E&amp;gt;): void&lt;br/&gt;+ copyInto(Object[]): void&lt;br/&gt;+ iterator(): Iterator&amp;lt;E&amp;gt;&lt;br/&gt;+ addAll(int, Collection&amp;lt;E&amp;gt;): boolean&lt;br/&gt;+ add(E): boolean&lt;br/&gt;+ toArray(): Object[]&lt;br/&gt;+ spliterator(): Spliterator&amp;lt;E&amp;gt;&lt;br/&gt;+ indexOf(Object, int): int&lt;br/&gt;~ elementData(int): E&lt;br/&gt;+ get(int): E&lt;br/&gt;+ contains(Object): boolean&lt;br/&gt;+ ensureCapacity(int): void&lt;br/&gt;- setBit(long[], int): void&lt;br/&gt;+ remove(Object): boolean&lt;br/&gt;+ listIterator(): ListIterator&amp;lt;E&amp;gt;&lt;br/&gt;+ removeElementAt(int): void&lt;br/&gt;+ capacity(): int&lt;br/&gt;+ elements(): Enumeration&amp;lt;E&amp;gt;&lt;br/&gt;+ elementAt(int): E&lt;br/&gt;+ remove(int): E&lt;br/&gt;- grow(): Object[]&lt;br/&gt;+ hashCode(): int&lt;br/&gt;+ clear(): void&lt;br/&gt;+ sort(Comparator&amp;lt;E&amp;gt;): void&lt;br/&gt;~ elementAt(Object[], int): E&lt;br/&gt;- readObject(ObjectInputStream): void&lt;br/&gt;+ subList(int, int): List&amp;lt;E&amp;gt;&lt;br/&gt;+ replaceAll(UnaryOperator&amp;lt;E&amp;gt;): void&lt;br/&gt;- hugeCapacity(int): int&lt;br/&gt;+ clone(): Object&lt;br/&gt;+ equals(Object): boolean&lt;br/&gt;+ size(): int&lt;br/&gt;+ lastIndexOf(Object, int): int&lt;br/&gt;+ firstElement(): E&lt;br/&gt;+ lastElement(): E&lt;br/&gt;- nBits(int): long[]&lt;br/&gt;+ removeElement(Object): boolean&lt;br/&gt;+ set(int, E): E&lt;br/&gt;~ checkInvariants(): void&lt;br/&gt;+ isEmpty(): boolean&lt;br/&gt;+ indexOf(Object): int&lt;br/&gt;+ retainAll(Collection&amp;lt;?&amp;gt;): boolean&lt;br/&gt;+ lastIndexOf(Object): int&lt;br/&gt;- shiftTailOverGap(Object[], int, int): void&lt;br/&gt;+ removeAll(Collection&amp;lt;?&amp;gt;): boolean&lt;br/&gt;+ trimToSize(): void&lt;br/&gt;+ setElementAt(E, int): void&lt;br/&gt;+ toArray(T[]): T[]&lt;br/&gt;+ setSize(int): void&lt;br/&gt;- writeObject(ObjectOutputStream): void&lt;/p&gt;" style="verticalAlign=top;align=left;overflow=fill;fontSize=14;fontFamily=Helvetica;html=1;rounded=1;shadow=0;comic=0;labelBackgroundColor=none;strokeWidth=1;sketch=1;curveFitting=1;jiggle=2;" parent="1" vertex="1">
          <mxGeometry x="998" y="6314" width="290" height="1863" as="geometry" />
        </mxCell>
        <mxCell id="edge19" value="" style="html=1;rounded=1;edgeStyle=orthogonalEdgeStyle;dashed=1;startArrow=none;endArrow=block;endSize=12;strokeColor=#008200;exitX=0.500;exitY=0.000;exitDx=0;exitDy=0;entryX=0.250;entryY=1.000;entryDx=0;entryDy=0;sketch=1;curveFitting=1;jiggle=2;" parent="1" source="node20" target="node11" edge="1">
          <mxGeometry width="50" height="50" relative="1" as="geometry">
            <Array as="points">
              <mxPoint x="2003" y="345" />
              <mxPoint x="3336" y="345" />
            </Array>
          </mxGeometry>
        </mxCell>
        <mxCell id="edge45" value="" style="html=1;rounded=1;edgeStyle=orthogonalEdgeStyle;dashed=0;startArrow=none;endArrow=block;endSize=12;strokeColor=#000082;exitX=0.750;exitY=0.000;exitDx=0;exitDy=0;entryX=0.500;entryY=1.000;entryDx=0;entryDy=0;sketch=1;curveFitting=1;jiggle=2;" parent="1" source="node19" target="node20" edge="1">
          <mxGeometry width="50" height="50" relative="1" as="geometry">
            <Array as="points">
              <mxPoint x="1292" y="2525" />
              <mxPoint x="2003" y="2525" />
            </Array>
          </mxGeometry>
        </mxCell>
        <mxCell id="edge52" value="" style="html=1;rounded=1;edgeStyle=orthogonalEdgeStyle;dashed=1;startArrow=none;endArrow=block;endSize=12;strokeColor=#008200;exitX=0.250;exitY=0.000;exitDx=0;exitDy=0;entryX=0.500;entryY=1.000;entryDx=0;entryDy=0;sketch=1;curveFitting=1;jiggle=2;" parent="1" source="node19" target="node18" edge="1">
          <mxGeometry width="50" height="50" relative="1" as="geometry">
            <Array as="points">
              <mxPoint x="1155" y="2925" />
              <mxPoint x="1163" y="2925" />
            </Array>
          </mxGeometry>
        </mxCell>
        <mxCell id="edge17" value="" style="html=1;rounded=1;edgeStyle=orthogonalEdgeStyle;dashed=1;startArrow=none;endArrow=block;endSize=12;strokeColor=#008200;exitX=0.500;exitY=0.000;exitDx=0;exitDy=0;entryX=0.250;entryY=1.000;entryDx=0;entryDy=0;sketch=1;curveFitting=1;jiggle=2;" parent="1" source="node35" target="node12" edge="1">
          <mxGeometry width="50" height="50" relative="1" as="geometry">
            <Array as="points">
              <mxPoint x="-57" y="2545" />
              <mxPoint x="-17" y="2545" />
              <mxPoint x="-17" y="2485" />
              <mxPoint x="-10" y="2485" />
            </Array>
          </mxGeometry>
        </mxCell>
        <mxCell id="edge30" value="" style="html=1;rounded=1;edgeStyle=orthogonalEdgeStyle;dashed=0;startArrow=none;endArrow=block;endSize=12;strokeColor=#000082;exitX=0.250;exitY=0.000;exitDx=0;exitDy=0;entryX=0.500;entryY=1.000;entryDx=0;entryDy=0;sketch=1;curveFitting=1;jiggle=2;" parent="1" source="node30" target="node20" edge="1">
          <mxGeometry width="50" height="50" relative="1" as="geometry">
            <Array as="points">
              <mxPoint x="2823" y="2525" />
              <mxPoint x="2003" y="2525" />
            </Array>
          </mxGeometry>
        </mxCell>
        <mxCell id="edge51" value="" style="html=1;rounded=1;edgeStyle=orthogonalEdgeStyle;dashed=1;startArrow=none;endArrow=block;endSize=12;strokeColor=#008200;exitX=0.750;exitY=0.000;exitDx=0;exitDy=0;entryX=0.750;entryY=1.000;entryDx=0;entryDy=0;sketch=1;curveFitting=1;jiggle=2;" parent="1" source="node30" target="node22" edge="1">
          <mxGeometry width="50" height="50" relative="1" as="geometry">
            <Array as="points">
              <mxPoint x="2943" y="2545" />
              <mxPoint x="3503" y="2545" />
              <mxPoint x="3503" y="2025" />
              <mxPoint x="3500" y="2025" />
            </Array>
          </mxGeometry>
        </mxCell>
        <mxCell id="edge4" value="" style="html=1;rounded=1;edgeStyle=orthogonalEdgeStyle;dashed=0;startArrow=none;endArrow=block;endSize=12;strokeColor=#000082;exitX=0.250;exitY=0.000;exitDx=0;exitDy=0;entryX=0.500;entryY=1.000;entryDx=0;entryDy=0;sketch=1;curveFitting=1;jiggle=2;" parent="1" source="node27" target="node20" edge="1">
          <mxGeometry width="50" height="50" relative="1" as="geometry">
            <Array as="points">
              <mxPoint x="3957" y="2525" />
              <mxPoint x="2003" y="2525" />
            </Array>
          </mxGeometry>
        </mxCell>
        <mxCell id="edge39" value="" style="html=1;rounded=1;edgeStyle=orthogonalEdgeStyle;dashed=1;startArrow=none;endArrow=block;endSize=12;strokeColor=#008200;exitX=0.750;exitY=0.000;exitDx=0;exitDy=0;entryX=0.250;entryY=1.000;entryDx=0;entryDy=0;sketch=1;curveFitting=1;jiggle=2;" parent="1" source="node27" target="node7" edge="1">
          <mxGeometry width="50" height="50" relative="1" as="geometry">
            <Array as="points">
              <mxPoint x="4089" y="3405" />
              <mxPoint x="4183" y="3405" />
              <mxPoint x="4183" y="1285" />
              <mxPoint x="4176" y="1285" />
            </Array>
          </mxGeometry>
        </mxCell>
        <mxCell id="edge41" value="" style="html=1;rounded=1;edgeStyle=orthogonalEdgeStyle;dashed=0;startArrow=none;endArrow=block;endSize=12;strokeColor=#000082;exitX=0.250;exitY=0.000;exitDx=0;exitDy=0;entryX=0.500;entryY=1.000;entryDx=0;entryDy=0;sketch=1;curveFitting=1;jiggle=2;" parent="1" source="node32" target="node30" edge="1">
          <mxGeometry width="50" height="50" relative="1" as="geometry">
            <Array as="points">
              <mxPoint x="2575" y="4445" />
              <mxPoint x="2883" y="4445" />
            </Array>
          </mxGeometry>
        </mxCell>
        <mxCell id="edge2" value="" style="html=1;rounded=1;edgeStyle=orthogonalEdgeStyle;dashed=1;startArrow=none;endArrow=block;endSize=12;strokeColor=#008200;exitX=0.750;exitY=0.000;exitDx=0;exitDy=0;entryX=0.500;entryY=1.000;entryDx=0;entryDy=0;sketch=1;curveFitting=1;jiggle=2;" parent="1" source="node32" target="node34" edge="1">
          <mxGeometry width="50" height="50" relative="1" as="geometry">
            <Array as="points">
              <mxPoint x="2751" y="4465" />
              <mxPoint x="3423" y="4465" />
            </Array>
          </mxGeometry>
        </mxCell>
        <mxCell id="edge48" value="" style="html=1;rounded=1;edgeStyle=orthogonalEdgeStyle;dashed=0;startArrow=none;endArrow=block;endSize=12;strokeColor=#000082;exitX=0.750;exitY=0.000;exitDx=0;exitDy=0;entryX=0.500;entryY=1.000;entryDx=0;entryDy=0;sketch=1;curveFitting=1;jiggle=2;" parent="1" source="node25" target="node20" edge="1">
          <mxGeometry width="50" height="50" relative="1" as="geometry">
            <Array as="points">
              <mxPoint x="1991" y="4245" />
              <mxPoint x="2003" y="4245" />
            </Array>
          </mxGeometry>
        </mxCell>
        <mxCell id="edge1" value="" style="html=1;rounded=1;edgeStyle=orthogonalEdgeStyle;dashed=1;startArrow=none;endArrow=block;endSize=12;strokeColor=#008200;exitX=0.250;exitY=0.000;exitDx=0;exitDy=0;entryX=0.500;entryY=1.000;entryDx=0;entryDy=0;sketch=1;curveFitting=1;jiggle=2;" parent="1" source="node25" target="node1" edge="1">
          <mxGeometry width="50" height="50" relative="1" as="geometry">
            <Array as="points">
              <mxPoint x="1815" y="4245" />
              <mxPoint x="1823" y="4245" />
            </Array>
          </mxGeometry>
        </mxCell>
        <mxCell id="edge43" value="" style="html=1;rounded=1;edgeStyle=orthogonalEdgeStyle;dashed=0;startArrow=none;endArrow=block;endSize=12;strokeColor=#000082;exitX=0.750;exitY=0.000;exitDx=0;exitDy=0;entryX=0.500;entryY=1.000;entryDx=0;entryDy=0;sketch=1;curveFitting=1;jiggle=2;" parent="1" source="node6" target="node19" edge="1">
          <mxGeometry width="50" height="50" relative="1" as="geometry">
            <Array as="points">
              <mxPoint x="942" y="4205" />
              <mxPoint x="1223" y="4205" />
            </Array>
          </mxGeometry>
        </mxCell>
        <mxCell id="edge31" value="" style="html=1;rounded=1;edgeStyle=orthogonalEdgeStyle;dashed=1;startArrow=none;endArrow=block;endSize=12;strokeColor=#008200;exitX=0.250;exitY=0.000;exitDx=0;exitDy=0;entryX=0.500;entryY=1.000;entryDx=0;entryDy=0;sketch=1;curveFitting=1;jiggle=2;" parent="1" source="node6" target="node18" edge="1">
          <mxGeometry width="50" height="50" relative="1" as="geometry">
            <Array as="points">
              <mxPoint x="745" y="4205" />
              <mxPoint x="583" y="4205" />
              <mxPoint x="583" y="2925" />
              <mxPoint x="1163" y="2925" />
            </Array>
          </mxGeometry>
        </mxCell>
        <mxCell id="edge21" value="" style="html=1;rounded=1;edgeStyle=orthogonalEdgeStyle;dashed=0;startArrow=none;endArrow=block;endSize=12;strokeColor=#008200;exitX=0.500;exitY=0.000;exitDx=0;exitDy=0;entryX=0.250;entryY=1.000;entryDx=0;entryDy=0;sketch=1;curveFitting=1;jiggle=2;" parent="1" source="node34" target="node22" edge="1">
          <mxGeometry width="50" height="50" relative="1" as="geometry">
            <Array as="points">
              <mxPoint x="3423" y="2025" />
              <mxPoint x="3426" y="2025" />
            </Array>
          </mxGeometry>
        </mxCell>
        <mxCell id="edge26" value="" style="html=1;rounded=1;edgeStyle=orthogonalEdgeStyle;dashed=0;startArrow=none;endArrow=block;endSize=12;strokeColor=#008200;exitX=0.500;exitY=0.000;exitDx=0;exitDy=0;entryX=0.500;entryY=1.000;entryDx=0;entryDy=0;sketch=1;curveFitting=1;jiggle=2;" parent="1" source="node11" target="node23" edge="1">
          <mxGeometry width="50" height="50" relative="1" as="geometry">
            <Array as="points" />
          </mxGeometry>
        </mxCell>
        <mxCell id="edge14" value="" style="html=1;rounded=1;edgeStyle=orthogonalEdgeStyle;dashed=0;startArrow=none;endArrow=block;endSize=12;strokeColor=#000082;exitX=0.250;exitY=0.000;exitDx=0;exitDy=0;entryX=0.500;entryY=1.000;entryDx=0;entryDy=0;sketch=1;curveFitting=1;jiggle=2;" parent="1" source="node24" target="node35" edge="1">
          <mxGeometry width="50" height="50" relative="1" as="geometry">
            <Array as="points">
              <mxPoint x="237" y="5965" />
              <mxPoint x="-57" y="5965" />
            </Array>
          </mxGeometry>
        </mxCell>
        <mxCell id="edge42" value="" style="html=1;rounded=1;edgeStyle=orthogonalEdgeStyle;dashed=1;startArrow=none;endArrow=block;endSize=12;strokeColor=#008200;exitX=0.750;exitY=0.000;exitDx=0;exitDy=0;entryX=0.500;entryY=1.000;entryDx=0;entryDy=0;sketch=1;curveFitting=1;jiggle=2;" parent="1" source="node24" target="node13" edge="1">
          <mxGeometry width="50" height="50" relative="1" as="geometry">
            <Array as="points">
              <mxPoint x="490" y="5965" />
              <mxPoint x="403" y="5965" />
            </Array>
          </mxGeometry>
        </mxCell>
        <mxCell id="edge46" value="" style="html=1;rounded=1;edgeStyle=orthogonalEdgeStyle;dashed=0;startArrow=none;endArrow=block;endSize=12;strokeColor=#000082;exitX=0.250;exitY=0.000;exitDx=0;exitDy=0;entryX=0.500;entryY=1.000;entryDx=0;entryDy=0;sketch=1;curveFitting=1;jiggle=2;" parent="1" source="node16" target="node20" edge="1">
          <mxGeometry width="50" height="50" relative="1" as="geometry">
            <Array as="points">
              <mxPoint x="1548" y="4285" />
              <mxPoint x="1543" y="4285" />
              <mxPoint x="1543" y="2525" />
              <mxPoint x="2003" y="2525" />
            </Array>
          </mxGeometry>
        </mxCell>
        <mxCell id="edge9" value="" style="html=1;rounded=1;edgeStyle=orthogonalEdgeStyle;dashed=1;startArrow=none;endArrow=block;endSize=12;strokeColor=#008200;exitX=0.750;exitY=0.000;exitDx=0;exitDy=0;entryX=0.500;entryY=1.000;entryDx=0;entryDy=0;sketch=1;curveFitting=1;jiggle=2;" parent="1" source="node16" target="node1" edge="1">
          <mxGeometry width="50" height="50" relative="1" as="geometry">
            <Array as="points">
              <mxPoint x="1698" y="4245" />
              <mxPoint x="1823" y="4245" />
            </Array>
          </mxGeometry>
        </mxCell>
        <mxCell id="edge3" value="" style="html=1;rounded=1;edgeStyle=orthogonalEdgeStyle;dashed=0;startArrow=none;endArrow=block;endSize=12;strokeColor=#000082;exitX=0.250;exitY=0.000;exitDx=0;exitDy=0;entryX=0.500;entryY=1.000;entryDx=0;entryDy=0;sketch=1;curveFitting=1;jiggle=2;" parent="1" source="node9" target="node30" edge="1">
          <mxGeometry width="50" height="50" relative="1" as="geometry">
            <Array as="points">
              <mxPoint x="3561" y="4445" />
              <mxPoint x="2883" y="4445" />
            </Array>
          </mxGeometry>
        </mxCell>
        <mxCell id="edge18" value="" style="html=1;rounded=1;edgeStyle=orthogonalEdgeStyle;dashed=1;startArrow=none;endArrow=block;endSize=12;strokeColor=#008200;exitX=0.750;exitY=0.000;exitDx=0;exitDy=0;entryX=0.750;entryY=1.000;entryDx=0;entryDy=0;sketch=1;curveFitting=1;jiggle=2;" parent="1" source="node9" target="node22" edge="1">
          <mxGeometry width="50" height="50" relative="1" as="geometry">
            <Array as="points">
              <mxPoint x="3805" y="4645" />
              <mxPoint x="3803" y="4645" />
              <mxPoint x="3803" y="2545" />
              <mxPoint x="3503" y="2545" />
              <mxPoint x="3503" y="2025" />
              <mxPoint x="3500" y="2025" />
            </Array>
          </mxGeometry>
        </mxCell>
        <mxCell id="edge33" value="" style="html=1;rounded=1;edgeStyle=orthogonalEdgeStyle;dashed=0;startArrow=none;endArrow=block;endSize=12;strokeColor=#008200;exitX=0.500;exitY=0.000;exitDx=0;exitDy=0;entryX=0.750;entryY=1.000;entryDx=0;entryDy=0;sketch=1;curveFitting=1;jiggle=2;" parent="1" source="node13" target="node12" edge="1">
          <mxGeometry width="50" height="50" relative="1" as="geometry">
            <Array as="points">
              <mxPoint x="403" y="2525" />
              <mxPoint x="223" y="2525" />
              <mxPoint x="223" y="2485" />
              <mxPoint x="216" y="2485" />
            </Array>
          </mxGeometry>
        </mxCell>
        <mxCell id="edge34" value="" style="html=1;rounded=1;edgeStyle=orthogonalEdgeStyle;dashed=0;startArrow=none;endArrow=block;endSize=12;strokeColor=#000082;exitX=0.250;exitY=0.000;exitDx=0;exitDy=0;entryX=0.500;entryY=1.000;entryDx=0;entryDy=0;sketch=1;curveFitting=1;jiggle=2;" parent="1" source="node2" target="node30" edge="1">
          <mxGeometry width="50" height="50" relative="1" as="geometry">
            <Array as="points">
              <mxPoint x="2361" y="4445" />
              <mxPoint x="2883" y="4445" />
            </Array>
          </mxGeometry>
        </mxCell>
        <mxCell id="edge27" value="" style="html=1;rounded=1;edgeStyle=orthogonalEdgeStyle;dashed=1;startArrow=none;endArrow=block;endSize=12;strokeColor=#008200;exitX=0.750;exitY=0.000;exitDx=0;exitDy=0;entryX=0.500;entryY=1.000;entryDx=0;entryDy=0;sketch=1;curveFitting=1;jiggle=2;" parent="1" source="node2" target="node34" edge="1">
          <mxGeometry width="50" height="50" relative="1" as="geometry">
            <Array as="points">
              <mxPoint x="2485" y="4465" />
              <mxPoint x="3423" y="4465" />
            </Array>
          </mxGeometry>
        </mxCell>
        <mxCell id="edge25" value="" style="html=1;rounded=1;edgeStyle=orthogonalEdgeStyle;dashed=0;startArrow=none;endArrow=block;endSize=12;strokeColor=#008200;exitX=0.500;exitY=0.000;exitDx=0;exitDy=0;entryX=0.250;entryY=1.000;entryDx=0;entryDy=0;sketch=1;curveFitting=1;jiggle=2;" parent="1" source="node1" target="node22" edge="1">
          <mxGeometry width="50" height="50" relative="1" as="geometry">
            <Array as="points">
              <mxPoint x="1823" y="2045" />
              <mxPoint x="3423" y="2045" />
              <mxPoint x="3423" y="2025" />
              <mxPoint x="3426" y="2025" />
            </Array>
          </mxGeometry>
        </mxCell>
        <mxCell id="edge16" value="" style="html=1;rounded=1;edgeStyle=orthogonalEdgeStyle;dashed=0;startArrow=none;endArrow=block;endSize=12;strokeColor=#000082;exitX=0.750;exitY=0.000;exitDx=0;exitDy=0;entryX=0.500;entryY=1.000;entryDx=0;entryDy=0;sketch=1;curveFitting=1;jiggle=2;" parent="1" source="node21" target="node35" edge="1">
          <mxGeometry width="50" height="50" relative="1" as="geometry">
            <Array as="points">
              <mxPoint x="-61" y="5965" />
              <mxPoint x="-57" y="5965" />
            </Array>
          </mxGeometry>
        </mxCell>
        <mxCell id="edge50" value="" style="html=1;rounded=1;edgeStyle=orthogonalEdgeStyle;dashed=1;startArrow=none;endArrow=block;endSize=12;strokeColor=#008200;exitX=0.250;exitY=0.000;exitDx=0;exitDy=0;entryX=0.250;entryY=1.000;entryDx=0;entryDy=0;sketch=1;curveFitting=1;jiggle=2;" parent="1" source="node21" target="node12" edge="1">
          <mxGeometry width="50" height="50" relative="1" as="geometry">
            <Array as="points">
              <mxPoint x="-293" y="6545" />
              <mxPoint x="-297" y="6545" />
              <mxPoint x="-297" y="2545" />
              <mxPoint x="-17" y="2545" />
              <mxPoint x="-17" y="2485" />
              <mxPoint x="-10" y="2485" />
            </Array>
          </mxGeometry>
        </mxCell>
        <mxCell id="edge35" value="" style="html=1;rounded=1;edgeStyle=orthogonalEdgeStyle;dashed=0;startArrow=none;endArrow=block;endSize=12;strokeColor=#000082;exitX=0.250;exitY=0.000;exitDx=0;exitDy=0;entryX=0.500;entryY=1.000;entryDx=0;entryDy=0;sketch=1;curveFitting=1;jiggle=2;" parent="1" source="node28" target="node27" edge="1">
          <mxGeometry width="50" height="50" relative="1" as="geometry">
            <Array as="points">
              <mxPoint x="4031" y="7045" />
              <mxPoint x="4023" y="7045" />
            </Array>
          </mxGeometry>
        </mxCell>
        <mxCell id="edge13" value="" style="html=1;rounded=1;edgeStyle=orthogonalEdgeStyle;dashed=1;startArrow=none;endArrow=block;endSize=12;strokeColor=#008200;exitX=0.750;exitY=0.000;exitDx=0;exitDy=0;entryX=0.250;entryY=1.000;entryDx=0;entryDy=0;sketch=1;curveFitting=1;jiggle=2;" parent="1" source="node28" target="node7" edge="1">
          <mxGeometry width="50" height="50" relative="1" as="geometry">
            <Array as="points">
              <mxPoint x="4175" y="7045" />
              <mxPoint x="4183" y="7045" />
              <mxPoint x="4183" y="1285" />
              <mxPoint x="4176" y="1285" />
            </Array>
          </mxGeometry>
        </mxCell>
        <mxCell id="edge38" value="" style="html=1;rounded=1;edgeStyle=orthogonalEdgeStyle;dashed=0;startArrow=none;endArrow=block;endSize=12;strokeColor=#000082;exitX=0.750;exitY=0.000;exitDx=0;exitDy=0;entryX=0.500;entryY=1.000;entryDx=0;entryDy=0;sketch=1;curveFitting=1;jiggle=2;" parent="1" source="node29" target="node15" edge="1">
          <mxGeometry width="50" height="50" relative="1" as="geometry">
            <Array as="points">
              <mxPoint x="927" y="2905" />
              <mxPoint x="923" y="2905" />
            </Array>
          </mxGeometry>
        </mxCell>
        <mxCell id="edge40" value="" style="html=1;rounded=1;edgeStyle=orthogonalEdgeStyle;dashed=1;startArrow=none;endArrow=block;endSize=12;strokeColor=#008200;exitX=0.250;exitY=0.000;exitDx=0;exitDy=0;entryX=0.250;entryY=1.000;entryDx=0;entryDy=0;sketch=1;curveFitting=1;jiggle=2;" parent="1" source="node29" target="node12" edge="1">
          <mxGeometry width="50" height="50" relative="1" as="geometry">
            <Array as="points">
              <mxPoint x="719" y="2545" />
              <mxPoint x="-17" y="2545" />
              <mxPoint x="-17" y="2485" />
              <mxPoint x="-10" y="2485" />
            </Array>
          </mxGeometry>
        </mxCell>
        <mxCell id="edge28" value="" style="html=1;rounded=1;edgeStyle=orthogonalEdgeStyle;dashed=0;startArrow=none;endArrow=block;endSize=12;strokeColor=#000082;exitX=0.250;exitY=0.000;exitDx=0;exitDy=0;entryX=0.500;entryY=1.000;entryDx=0;entryDy=0;sketch=1;curveFitting=1;jiggle=2;" parent="1" source="node10" target="node30" edge="1">
          <mxGeometry width="50" height="50" relative="1" as="geometry">
            <Array as="points">
              <mxPoint x="3262" y="4445" />
              <mxPoint x="2883" y="4445" />
            </Array>
          </mxGeometry>
        </mxCell>
        <mxCell id="edge12" value="" style="html=1;rounded=1;edgeStyle=orthogonalEdgeStyle;dashed=1;startArrow=none;endArrow=block;endSize=12;strokeColor=#008200;exitX=0.750;exitY=0.000;exitDx=0;exitDy=0;entryX=0.500;entryY=1.000;entryDx=0;entryDy=0;sketch=1;curveFitting=1;jiggle=2;" parent="1" source="node10" target="node34" edge="1">
          <mxGeometry width="50" height="50" relative="1" as="geometry">
            <Array as="points">
              <mxPoint x="3424" y="4465" />
              <mxPoint x="3423" y="4465" />
            </Array>
          </mxGeometry>
        </mxCell>
        <mxCell id="edge47" value="" style="html=1;rounded=1;edgeStyle=orthogonalEdgeStyle;dashed=0;startArrow=none;endArrow=block;endSize=12;strokeColor=#000082;exitX=0.250;exitY=0.000;exitDx=0;exitDy=0;entryX=0.500;entryY=1.000;entryDx=0;entryDy=0;sketch=1;curveFitting=1;jiggle=2;" parent="1" source="node3" target="node21" edge="1">
          <mxGeometry width="50" height="50" relative="1" as="geometry">
            <Array as="points">
              <mxPoint x="-153" y="8685" />
              <mxPoint x="-177" y="8685" />
            </Array>
          </mxGeometry>
        </mxCell>
        <mxCell id="edge10" value="" style="html=1;rounded=1;edgeStyle=orthogonalEdgeStyle;dashed=1;startArrow=none;endArrow=block;endSize=12;strokeColor=#008200;exitX=0.750;exitY=0.000;exitDx=0;exitDy=0;entryX=0.250;entryY=1.000;entryDx=0;entryDy=0;sketch=1;curveFitting=1;jiggle=2;" parent="1" source="node3" target="node12" edge="1">
          <mxGeometry width="50" height="50" relative="1" as="geometry">
            <Array as="points">
              <mxPoint x="79" y="8685" />
              <mxPoint x="83" y="8685" />
              <mxPoint x="83" y="2545" />
              <mxPoint x="-17" y="2545" />
              <mxPoint x="-17" y="2485" />
              <mxPoint x="-10" y="2485" />
            </Array>
          </mxGeometry>
        </mxCell>
        <mxCell id="edge24" value="" style="html=1;rounded=1;edgeStyle=orthogonalEdgeStyle;dashed=0;startArrow=none;endArrow=block;endSize=12;strokeColor=#000082;exitX=0.250;exitY=0.000;exitDx=0;exitDy=0;entryX=0.500;entryY=1.000;entryDx=0;entryDy=0;sketch=1;curveFitting=1;jiggle=2;" parent="1" source="node4" target="node19" edge="1">
          <mxGeometry width="50" height="50" relative="1" as="geometry">
            <Array as="points">
              <mxPoint x="1310" y="4205" />
              <mxPoint x="1223" y="4205" />
            </Array>
          </mxGeometry>
        </mxCell>
        <mxCell id="edge36" value="" style="html=1;rounded=1;edgeStyle=orthogonalEdgeStyle;dashed=1;startArrow=none;endArrow=block;endSize=12;strokeColor=#008200;exitX=0.750;exitY=0.000;exitDx=0;exitDy=0;entryX=0.500;entryY=1.000;entryDx=0;entryDy=0;sketch=1;curveFitting=1;jiggle=2;" parent="1" source="node4" target="node1" edge="1">
          <mxGeometry width="50" height="50" relative="1" as="geometry">
            <Array as="points">
              <mxPoint x="1457" y="4285" />
              <mxPoint x="1463" y="4285" />
              <mxPoint x="1463" y="4225" />
              <mxPoint x="1823" y="4225" />
            </Array>
          </mxGeometry>
        </mxCell>
        <mxCell id="edge20" value="" style="html=1;rounded=1;edgeStyle=orthogonalEdgeStyle;dashed=1;startArrow=none;endArrow=block;endSize=12;strokeColor=#008200;exitX=0.750;exitY=0.000;exitDx=0;exitDy=0;entryX=0.500;entryY=1.000;entryDx=0;entryDy=0;sketch=1;curveFitting=1;jiggle=2;" parent="1" source="node4" target="node18" edge="1">
          <mxGeometry width="50" height="50" relative="1" as="geometry">
            <Array as="points">
              <mxPoint x="1457" y="4285" />
              <mxPoint x="1463" y="4285" />
              <mxPoint x="1463" y="2925" />
              <mxPoint x="1163" y="2925" />
            </Array>
          </mxGeometry>
        </mxCell>
        <mxCell id="edge11" value="" style="html=1;rounded=1;edgeStyle=orthogonalEdgeStyle;dashed=0;startArrow=none;endArrow=block;endSize=12;strokeColor=#008200;exitX=0.500;exitY=0.000;exitDx=0;exitDy=0;entryX=0.750;entryY=1.000;entryDx=0;entryDy=0;sketch=1;curveFitting=1;jiggle=2;" parent="1" source="node18" target="node11" edge="1">
          <mxGeometry width="50" height="50" relative="1" as="geometry">
            <Array as="points">
              <mxPoint x="1163" y="365" />
              <mxPoint x="3463" y="365" />
              <mxPoint x="3463" y="325" />
              <mxPoint x="3470" y="325" />
            </Array>
          </mxGeometry>
        </mxCell>
        <mxCell id="edge0" value="" style="html=1;rounded=1;edgeStyle=orthogonalEdgeStyle;dashed=0;startArrow=none;endArrow=block;endSize=12;strokeColor=#008200;exitX=0.500;exitY=0.000;exitDx=0;exitDy=0;entryX=0.500;entryY=1.000;entryDx=0;entryDy=0;sketch=1;curveFitting=1;jiggle=2;" parent="1" source="node14" target="node17" edge="1">
          <mxGeometry width="50" height="50" relative="1" as="geometry">
            <Array as="points">
              <mxPoint x="4383" y="4845" />
              <mxPoint x="4323" y="4845" />
            </Array>
          </mxGeometry>
        </mxCell>
        <mxCell id="edge8" value="" style="html=1;rounded=1;edgeStyle=orthogonalEdgeStyle;dashed=0;startArrow=none;endArrow=block;endSize=12;strokeColor=#000082;exitX=0.250;exitY=0.000;exitDx=0;exitDy=0;entryX=0.500;entryY=1.000;entryDx=0;entryDy=0;sketch=1;curveFitting=1;jiggle=2;" parent="1" source="node0" target="node30" edge="1">
          <mxGeometry width="50" height="50" relative="1" as="geometry">
            <Array as="points">
              <mxPoint x="2886" y="4445" />
              <mxPoint x="2883" y="4445" />
            </Array>
          </mxGeometry>
        </mxCell>
        <mxCell id="edge6" value="" style="html=1;rounded=1;edgeStyle=orthogonalEdgeStyle;dashed=1;startArrow=none;endArrow=block;endSize=12;strokeColor=#008200;exitX=0.750;exitY=0.000;exitDx=0;exitDy=0;entryX=0.500;entryY=1.000;entryDx=0;entryDy=0;sketch=1;curveFitting=1;jiggle=2;" parent="1" source="node0" target="node34" edge="1">
          <mxGeometry width="50" height="50" relative="1" as="geometry">
            <Array as="points">
              <mxPoint x="3121" y="4465" />
              <mxPoint x="3423" y="4465" />
            </Array>
          </mxGeometry>
        </mxCell>
        <mxCell id="edge37" value="" style="html=1;rounded=1;edgeStyle=orthogonalEdgeStyle;dashed=0;startArrow=none;endArrow=block;endSize=12;strokeColor=#000082;exitX=0.500;exitY=0.000;exitDx=0;exitDy=0;entryX=0.500;entryY=1.000;entryDx=0;entryDy=0;sketch=1;curveFitting=1;jiggle=2;" parent="1" source="node26" target="node30" edge="1">
          <mxGeometry width="50" height="50" relative="1" as="geometry">
            <Array as="points">
              <mxPoint x="2163" y="4445" />
              <mxPoint x="2883" y="4445" />
            </Array>
          </mxGeometry>
        </mxCell>
        <mxCell id="edge23" value="" style="html=1;rounded=1;edgeStyle=orthogonalEdgeStyle;dashed=0;startArrow=none;endArrow=block;endSize=12;strokeColor=#008200;exitX=0.500;exitY=0.000;exitDx=0;exitDy=0;entryX=0.750;entryY=1.000;entryDx=0;entryDy=0;sketch=1;curveFitting=1;jiggle=2;" parent="1" source="node22" target="node11" edge="1">
          <mxGeometry width="50" height="50" relative="1" as="geometry">
            <Array as="points">
              <mxPoint x="3463" y="325" />
              <mxPoint x="3470" y="325" />
            </Array>
          </mxGeometry>
        </mxCell>
        <mxCell id="edge15" value="" style="html=1;rounded=1;edgeStyle=orthogonalEdgeStyle;dashed=0;startArrow=none;endArrow=block;endSize=12;strokeColor=#008200;exitX=0.500;exitY=0.000;exitDx=0;exitDy=0;entryX=0.750;entryY=1.000;entryDx=0;entryDy=0;sketch=1;curveFitting=1;jiggle=2;" parent="1" source="node7" target="node11" edge="1">
          <mxGeometry width="50" height="50" relative="1" as="geometry">
            <Array as="points">
              <mxPoint x="4243" y="365" />
              <mxPoint x="3463" y="365" />
              <mxPoint x="3463" y="325" />
              <mxPoint x="3470" y="325" />
            </Array>
          </mxGeometry>
        </mxCell>
        <mxCell id="edge32" value="" style="html=1;rounded=1;edgeStyle=orthogonalEdgeStyle;dashed=0;startArrow=none;endArrow=block;endSize=12;strokeColor=#008200;exitX=0.500;exitY=0.000;exitDx=0;exitDy=0;entryX=0.750;entryY=1.000;entryDx=0;entryDy=0;sketch=1;curveFitting=1;jiggle=2;" parent="1" source="node33" target="node12" edge="1">
          <mxGeometry width="50" height="50" relative="1" as="geometry">
            <Array as="points">
              <mxPoint x="223" y="2485" />
              <mxPoint x="216" y="2485" />
            </Array>
          </mxGeometry>
        </mxCell>
        <mxCell id="edge22" value="" style="html=1;rounded=1;edgeStyle=orthogonalEdgeStyle;dashed=0;startArrow=none;endArrow=block;endSize=12;strokeColor=#008200;exitX=0.500;exitY=0.000;exitDx=0;exitDy=0;entryX=0.750;entryY=1.000;entryDx=0;entryDy=0;sketch=1;curveFitting=1;jiggle=2;" parent="1" source="node17" target="node7" edge="1">
          <mxGeometry width="50" height="50" relative="1" as="geometry">
            <Array as="points">
              <mxPoint x="4323" y="3405" />
              <mxPoint x="4310" y="3405" />
            </Array>
          </mxGeometry>
        </mxCell>
        <mxCell id="edge7" value="" style="html=1;rounded=1;edgeStyle=orthogonalEdgeStyle;dashed=0;startArrow=none;endArrow=block;endSize=12;strokeColor=#000082;exitX=0.500;exitY=0.000;exitDx=0;exitDy=0;entryX=0.500;entryY=1.000;entryDx=0;entryDy=0;sketch=1;curveFitting=1;jiggle=2;" parent="1" source="node5" target="node31" edge="1">
          <mxGeometry width="50" height="50" relative="1" as="geometry">
            <Array as="points" />
          </mxGeometry>
        </mxCell>
        <mxCell id="edge49" value="" style="html=1;rounded=1;edgeStyle=orthogonalEdgeStyle;dashed=0;startArrow=none;endArrow=block;endSize=12;strokeColor=#000082;exitX=0.250;exitY=0.000;exitDx=0;exitDy=0;entryX=0.500;entryY=1.000;entryDx=0;entryDy=0;sketch=1;curveFitting=1;jiggle=2;" parent="1" source="node8" target="node27" edge="1">
          <mxGeometry width="50" height="50" relative="1" as="geometry">
            <Array as="points">
              <mxPoint x="3935" y="8565" />
              <mxPoint x="3943" y="8565" />
              <mxPoint x="3943" y="7045" />
              <mxPoint x="4023" y="7045" />
            </Array>
          </mxGeometry>
        </mxCell>
        <mxCell id="edge5" value="" style="html=1;rounded=1;edgeStyle=orthogonalEdgeStyle;dashed=1;startArrow=none;endArrow=block;endSize=12;strokeColor=#008200;exitX=0.750;exitY=0.000;exitDx=0;exitDy=0;entryX=0.500;entryY=1.000;entryDx=0;entryDy=0;sketch=1;curveFitting=1;jiggle=2;" parent="1" source="node8" target="node14" edge="1">
          <mxGeometry width="50" height="50" relative="1" as="geometry">
            <Array as="points">
              <mxPoint x="4112" y="8565" />
              <mxPoint x="4383" y="8565" />
            </Array>
          </mxGeometry>
        </mxCell>
        <mxCell id="edge44" value="" style="html=1;rounded=1;edgeStyle=orthogonalEdgeStyle;dashed=0;startArrow=none;endArrow=block;endSize=12;strokeColor=#000082;exitX=0.750;exitY=0.000;exitDx=0;exitDy=0;entryX=0.500;entryY=1.000;entryDx=0;entryDy=0;sketch=1;curveFitting=1;jiggle=2;" parent="1" source="node31" target="node19" edge="1">
          <mxGeometry width="50" height="50" relative="1" as="geometry">
            <Array as="points">
              <mxPoint x="1216" y="4205" />
              <mxPoint x="1223" y="4205" />
            </Array>
          </mxGeometry>
        </mxCell>
        <mxCell id="edge29" value="" style="html=1;rounded=1;edgeStyle=orthogonalEdgeStyle;dashed=1;startArrow=none;endArrow=block;endSize=12;strokeColor=#008200;exitX=0.250;exitY=0.000;exitDx=0;exitDy=0;entryX=0.500;entryY=1.000;entryDx=0;entryDy=0;sketch=1;curveFitting=1;jiggle=2;" parent="1" source="node31" target="node18" edge="1">
          <mxGeometry width="50" height="50" relative="1" as="geometry">
            <Array as="points">
              <mxPoint x="1071" y="4185" />
              <mxPoint x="1063" y="4185" />
              <mxPoint x="1063" y="2925" />
              <mxPoint x="1163" y="2925" />
            </Array>
          </mxGeometry>
        </mxCell>
      </root>
    </mxGraphModel>
  </diagram>
</mxfile>
